<svg width="17" height="15" viewBox="0 0 17 15" fill="none" xmlns="http://www.w3.org/2000/svg">
<path d="M8.63566 2.88656C8.76366 2.73611 10.5267 0.725453 12.8197 1.08486C13.5305 1.24922 14.1884 1.56991 14.7378 2.01989C15.2873 2.46987 15.7122 3.03595 15.9767 3.6704C17.0957 6.20485 14.8977 9.36432 10.5667 12.9176C10.0207 13.3584 9.32162 13.6012 8.59816 13.6012C7.87469 13.6012 7.17559 13.3584 6.62966 12.9176C2.31466 9.37547 0.177656 6.25871 1.29566 3.72333C1.55451 3.07555 1.97594 2.49441 2.52497 2.02812C3.07401 1.56183 3.73484 1.22383 4.45266 1.04214C6.74466 0.682732 8.50766 2.73611 8.63566 2.88656Z" fill="white" stroke="#060606" stroke-linecap="round" stroke-linejoin="round"/>
</svg>
