<svg width="200" height="24" viewBox="0 0 200 24" fill="none" xmlns="http://www.w3.org/2000/svg">
<path d="M16.332 11.1235C16.2265 11.0738 16.1195 11.0255 16.0125 10.9802C15.8238 7.56625 13.9288 5.61292 10.7454 5.59245C10.7305 5.59245 10.7171 5.59245 10.7023 5.59245C8.79841 5.59245 7.2141 6.3922 6.24063 7.84697L7.99139 9.02833C8.71964 7.942 9.86254 7.70953 10.7037 7.70953C10.7141 7.70953 10.7231 7.70953 10.7335 7.70953C11.7812 7.71538 12.5719 8.01657 13.0847 8.59994C13.4577 9.0254 13.7059 9.61316 13.8293 10.3559C12.9004 10.2009 11.8942 10.1527 10.8211 10.2126C7.79521 10.3837 5.84826 12.1206 5.97905 14.533C6.04593 15.7568 6.66568 16.8095 7.72387 17.4981C8.61857 18.08 9.77188 18.3637 10.9713 18.2994C12.5541 18.2146 13.7966 17.6195 14.6615 16.5332C15.3199 15.7086 15.7361 14.6398 15.9189 13.2917C16.6739 13.7391 17.2327 14.3284 17.5403 15.0375C18.065 16.2422 18.0962 18.2204 16.4539 19.8345C15.0153 21.2484 13.2868 21.8595 10.674 21.8785C7.77589 21.8581 5.58372 20.9428 4.15844 19.1605C2.82381 17.4923 2.13421 15.0813 2.10894 11.9963C2.13421 8.91136 2.82381 6.5004 4.15844 4.83217C5.58372 3.04989 7.77589 2.1361 10.674 2.11416C13.5929 2.1361 15.8238 3.05428 17.3025 4.84532C18.0278 5.72403 18.5747 6.8279 18.9359 8.11599L20.9869 7.57795C20.5499 5.99306 19.8618 4.62747 18.9255 3.49436C17.0306 1.20037 14.2558 0.0248553 10.6814 0H10.6666C7.09966 0.0248553 4.35759 1.20475 2.51468 3.51045C0.873896 5.56028 0.0282381 8.41426 0 11.9905V11.9993V12.008C0.0282381 15.5843 0.873896 18.4383 2.51468 20.4896C4.35759 22.7938 7.10115 23.9751 10.6681 24H10.6829C13.8545 23.9781 16.0898 23.1622 17.9312 21.3522C20.3404 18.9836 20.2675 16.0156 19.4739 14.1938C18.9047 12.8868 17.8183 11.8253 16.332 11.1249V11.1235ZM10.8568 16.1881C9.52962 16.2612 8.1519 15.6764 8.08354 14.4219C8.033 13.492 8.75679 12.454 10.9371 12.3297C11.1868 12.3151 11.432 12.3092 11.6728 12.3092C12.4649 12.3092 13.2065 12.3853 13.8798 12.53C13.6286 15.6179 12.1543 16.1194 10.8553 16.1896L10.8568 16.1881Z" fill="black"/>
<path d="M60.6105 1H51.3172C47.8126 1 44.9707 3.84363 44.9707 7.35042V16.6496C44.9707 20.1564 47.8126 23 51.3172 23H60.6105C64.1151 23 66.957 20.1564 66.957 16.6496V7.35042C66.957 3.84363 64.1166 1 60.6105 1ZM64.9317 16.8124C64.9317 19.1409 63.0455 21.0268 60.7185 21.0268H51.2077C48.8807 21.0268 46.9959 19.1394 46.9959 16.8124V7.29565C46.9959 4.96717 48.8821 3.08128 51.2077 3.08128H60.7185C63.0455 3.08128 64.9317 4.96865 64.9317 7.29565V16.8124Z" fill="black"/>
<path d="M55.4634 6C52.4286 6 49.9668 8.46188 49.9668 11.5C49.9668 14.5381 52.4286 17 55.4634 17C58.4982 17 60.9599 14.5381 60.9599 11.5C60.9599 8.46188 58.4996 6 55.4634 6ZM55.4634 15.0644C53.4948 15.0644 51.8997 13.4684 51.8997 11.5C51.8997 9.53164 53.4948 7.93413 55.4634 7.93413C57.4319 7.93413 59.027 9.53021 59.027 11.5C59.027 13.4698 57.4319 15.0644 55.4634 15.0644Z" fill="black"/>
<path d="M61.462 5C60.634 5 59.9629 5.67149 59.9629 6.5C59.9629 7.32851 60.634 8 61.462 8C62.2899 8 62.961 7.32851 62.961 6.5C62.961 5.67149 62.2899 5 61.462 5Z" fill="black"/>
<path d="M104.264 14.4437L104.793 10.3761H100.726V7.77928C100.726 6.60199 101.058 5.79903 102.762 5.79903H104.934V2.16001C104.559 2.1101 103.27 2 101.768 2C98.6324 2 96.487 3.89511 96.487 7.37706V10.3761H92.9414V14.4437H96.487V24H100.726V14.4437H104.263H104.264Z" fill="black"/>
<path d="M152.138 4H136.989C134.093 4 132.916 6.34183 132.916 9.23266V14.7673C132.916 17.6582 134.216 20 137.113 20H152.015C154.911 20 155.902 17.6567 155.902 14.7673V9.23266C155.902 6.34183 155.034 4 152.138 4ZM142.298 15.1378V8.86219L148.324 12L142.298 15.1378Z" fill="black"/>
<path d="M180.933 3L188.264 12.9281L180.887 21H182.547L189.007 13.9338L194.225 21H199.875L192.132 10.5142L198.999 3.00146H197.338L191.39 9.50992L186.584 3.00146H180.934L180.933 3ZM183.374 4.23845H185.97L197.432 19.7601H194.836L183.374 4.23845Z" fill="black"/>
</svg>
