<svg width="256" height="24" viewBox="0 0 256 24" fill="none" xmlns="http://www.w3.org/2000/svg">
<path d="M108.461 23.0156C107.93 22.6354 107.44 22.1979 106.992 21.7031C106.544 21.2083 106.156 20.6693 105.828 20.0859C105.505 19.5026 105.253 18.8854 105.07 18.2344C104.888 17.5781 104.797 16.901 104.797 16.2031C104.797 15.4948 104.891 14.8099 105.078 14.1484C105.266 13.4818 105.526 12.8568 105.859 12.2734C106.193 11.6849 106.589 11.1406 107.047 10.6406C107.505 10.1406 108.005 9.70052 108.547 9.32031L108.75 9.53125C108.255 9.91667 107.839 10.3568 107.5 10.8516C107.161 11.3411 106.885 11.8724 106.672 12.4453C106.464 13.013 106.312 13.6146 106.219 14.25C106.125 14.8854 106.078 15.5365 106.078 16.2031C106.078 16.8646 106.122 17.5078 106.211 18.1328C106.305 18.7578 106.453 19.3542 106.656 19.9219C106.865 20.4844 107.133 21.0104 107.461 21.5C107.789 21.9896 108.193 22.4245 108.672 22.8047L108.461 23.0156ZM110.266 20.9688C110.297 20.8594 110.326 20.724 110.352 20.5625C110.383 20.401 110.409 20.2005 110.43 19.9609C110.451 19.7214 110.466 19.4375 110.477 19.1094C110.487 18.776 110.492 18.388 110.492 17.9453V12.8594C110.492 12.4167 110.461 12.0651 110.398 11.8047C110.336 11.5443 110.26 11.3438 110.172 11.2031C110.089 11.0625 110 10.9609 109.906 10.8984C109.818 10.8359 109.742 10.7786 109.68 10.7266V10.6953L112.078 9.79688V9.82812C112.047 9.9375 112.016 10.0729 111.984 10.2344C111.958 10.3958 111.935 10.599 111.914 10.8438C111.893 11.0833 111.878 11.3698 111.867 11.7031C111.857 12.0312 111.852 12.4167 111.852 12.8594V17.9453C111.852 18.388 111.857 18.776 111.867 19.1094C111.878 19.4375 111.893 19.7214 111.914 19.9609C111.935 20.2005 111.958 20.401 111.984 20.5625C112.016 20.724 112.047 20.8594 112.078 20.9688V21H110.266V20.9688ZM128.508 11.5156L128.438 11.5469C128.031 11.1719 127.542 10.8724 126.969 10.6484C126.401 10.4245 125.776 10.3125 125.094 10.3125C124.438 10.3125 123.836 10.4167 123.289 10.625C122.742 10.8281 122.271 11.125 121.875 11.5156C121.484 11.9062 121.18 12.3854 120.961 12.9531C120.742 13.5208 120.633 14.1667 120.633 14.8906C120.633 15.6875 120.737 16.4323 120.945 17.125C121.154 17.8125 121.464 18.4089 121.875 18.9141C122.286 19.4193 122.799 19.8177 123.414 20.1094C124.034 20.3958 124.755 20.5391 125.578 20.5391C125.875 20.5391 126.172 20.5078 126.469 20.4453C126.766 20.3828 127.049 20.2917 127.32 20.1719C127.596 20.0469 127.854 19.8984 128.094 19.7266C128.339 19.5495 128.56 19.349 128.758 19.125L128.844 19.1797L128.219 20.7734C127.828 20.9245 127.396 21.0391 126.922 21.1172C126.453 21.2005 125.979 21.2422 125.5 21.2422C124.536 21.2422 123.654 21.1042 122.852 20.8281C122.055 20.5469 121.367 20.151 120.789 19.6406C120.216 19.1302 119.768 18.5182 119.445 17.8047C119.128 17.0859 118.969 16.2891 118.969 15.4141C118.969 14.9193 119.031 14.4323 119.156 13.9531C119.286 13.474 119.474 13.0182 119.719 12.5859C119.964 12.1536 120.266 11.7578 120.625 11.3984C120.984 11.0339 121.393 10.7188 121.852 10.4531C122.315 10.1875 122.823 9.98177 123.375 9.83594C123.932 9.6849 124.534 9.60938 125.18 9.60938C126.185 9.60938 127.117 9.76302 127.977 10.0703L128.508 11.5156ZM131.672 18.2656C131.672 18.9531 131.807 19.4583 132.078 19.7812C132.354 20.1042 132.724 20.2656 133.188 20.2656C133.354 20.2656 133.542 20.2318 133.75 20.1641C133.958 20.0911 134.172 19.9974 134.391 19.8828C134.615 19.763 134.836 19.625 135.055 19.4688C135.279 19.3125 135.484 19.1458 135.672 18.9688C135.682 18.8177 135.688 18.6589 135.688 18.4922C135.688 18.3203 135.688 18.138 135.688 17.9453V16.0547C135.688 15.612 135.68 15.2266 135.664 14.8984C135.654 14.5651 135.638 14.2786 135.617 14.0391C135.602 13.7995 135.578 13.599 135.547 13.4375C135.521 13.276 135.492 13.1406 135.461 13.0312V13H137.266V13.0312C137.234 13.1406 137.206 13.276 137.18 13.4375C137.154 13.599 137.13 13.7995 137.109 14.0391C137.089 14.2786 137.073 14.5651 137.062 14.8984C137.052 15.2266 137.047 15.612 137.047 16.0547V17.9453C137.047 18.388 137.052 18.776 137.062 19.1094C137.073 19.4375 137.089 19.7214 137.109 19.9609C137.13 20.2005 137.154 20.401 137.18 20.5625C137.206 20.724 137.234 20.8594 137.266 20.9688V21H135.461V20.9688C135.492 20.8385 135.523 20.6719 135.555 20.4688C135.591 20.2656 135.617 20 135.633 19.6719C135.419 19.8542 135.188 20.0339 134.938 20.2109C134.693 20.388 134.435 20.5469 134.164 20.6875C133.898 20.8281 133.628 20.9401 133.352 21.0234C133.081 21.112 132.812 21.1562 132.547 21.1562C132.141 21.1562 131.794 21.0859 131.508 20.9453C131.227 20.8047 130.995 20.6198 130.812 20.3906C130.635 20.1615 130.505 19.901 130.422 19.6094C130.344 19.3177 130.305 19.0182 130.305 18.7109V16.0547C130.305 15.612 130.299 15.2266 130.289 14.8984C130.279 14.5651 130.263 14.2786 130.242 14.0391C130.221 13.7995 130.198 13.599 130.172 13.4375C130.146 13.276 130.117 13.1406 130.086 13.0312V13H131.891V13.0312C131.859 13.1406 131.831 13.276 131.805 13.4375C131.779 13.599 131.755 13.7995 131.734 14.0391C131.714 14.2786 131.698 14.5651 131.688 14.8984C131.677 15.2266 131.672 15.612 131.672 16.0547V18.2656ZM142.984 14.5703L142.875 14.5859C142.839 14.4661 142.779 14.3385 142.695 14.2031C142.617 14.0677 142.513 13.9427 142.383 13.8281C142.258 13.7135 142.104 13.6198 141.922 13.5469C141.745 13.4688 141.539 13.4297 141.305 13.4297C141.143 13.4297 140.99 13.4531 140.844 13.5C140.703 13.5469 140.578 13.6172 140.469 13.7109C140.365 13.7995 140.281 13.9115 140.219 14.0469C140.156 14.1823 140.125 14.3411 140.125 14.5234C140.125 14.7786 140.203 15.0234 140.359 15.2578C140.521 15.487 140.721 15.7161 140.961 15.9453C141.201 16.1693 141.458 16.3958 141.734 16.625C142.016 16.8542 142.276 17.0938 142.516 17.3438C142.755 17.5938 142.953 17.862 143.109 18.1484C143.271 18.4297 143.352 18.7344 143.352 19.0625C143.352 19.3281 143.305 19.5885 143.211 19.8438C143.117 20.0938 142.971 20.3177 142.773 20.5156C142.581 20.7135 142.331 20.875 142.023 21C141.721 21.1198 141.359 21.1797 140.938 21.1797C140.688 21.1797 140.453 21.1562 140.234 21.1094C140.021 21.0625 139.823 21.0052 139.641 20.9375C139.464 20.8646 139.302 20.7865 139.156 20.7031C139.016 20.6146 138.891 20.5312 138.781 20.4531L138.859 18.9688H138.984C139.036 19.2135 139.115 19.4375 139.219 19.6406C139.323 19.8438 139.451 20.0182 139.602 20.1641C139.758 20.3047 139.935 20.4167 140.133 20.5C140.331 20.5781 140.547 20.6172 140.781 20.6172C141.167 20.6172 141.471 20.5104 141.695 20.2969C141.924 20.0833 142.039 19.8047 142.039 19.4609C142.039 19.1849 141.961 18.9323 141.805 18.7031C141.654 18.4688 141.461 18.2448 141.227 18.0312C140.992 17.8177 140.74 17.6042 140.469 17.3906C140.203 17.1771 139.953 16.9505 139.719 16.7109C139.484 16.4661 139.289 16.2005 139.133 15.9141C138.982 15.6224 138.906 15.2917 138.906 14.9219C138.906 14.6198 138.961 14.3438 139.07 14.0938C139.185 13.8385 139.341 13.6224 139.539 13.4453C139.742 13.263 139.982 13.1224 140.258 13.0234C140.534 12.9245 140.836 12.875 141.164 12.875C141.596 12.875 141.956 12.9219 142.242 13.0156C142.534 13.1042 142.755 13.1901 142.906 13.2734L142.984 14.5703ZM147.953 20.5391C148.109 20.5391 148.263 20.5104 148.414 20.4531C148.57 20.3958 148.719 20.3177 148.859 20.2188C149.005 20.1198 149.143 20.0078 149.273 19.8828C149.409 19.7526 149.534 19.6172 149.648 19.4766L149.727 19.5156L149.219 20.7734C149.156 20.8047 149.078 20.8438 148.984 20.8906C148.896 20.9323 148.786 20.9714 148.656 21.0078C148.531 21.0495 148.383 21.0833 148.211 21.1094C148.039 21.1406 147.836 21.1562 147.602 21.1562C146.904 21.1562 146.359 20.9688 145.969 20.5938C145.583 20.2135 145.391 19.6224 145.391 18.8203V13.6094L144.078 13.6562V12.9688C144.24 12.9792 144.432 12.987 144.656 12.9922C144.88 12.9974 145.125 13 145.391 13C145.385 12.6302 145.375 12.3047 145.359 12.0234C145.349 11.737 145.333 11.4896 145.312 11.2812C145.297 11.0677 145.276 10.888 145.25 10.7422C145.224 10.5964 145.198 10.474 145.172 10.375V10.3438H146.977V10.375C146.945 10.474 146.917 10.5964 146.891 10.7422C146.865 10.888 146.841 11.0651 146.82 11.2734C146.805 11.4818 146.789 11.7292 146.773 12.0156C146.763 12.2969 146.755 12.625 146.75 13C147.078 12.9948 147.398 12.9896 147.711 12.9844C148.029 12.974 148.315 12.9635 148.57 12.9531C148.831 12.9375 149.049 12.9245 149.227 12.9141C149.409 12.8984 149.529 12.8854 149.586 12.875L149.445 13.6719C149.18 13.6667 148.901 13.6589 148.609 13.6484C148.359 13.638 148.073 13.6302 147.75 13.625C147.427 13.6198 147.094 13.6146 146.75 13.6094V18.9844C146.75 19.3073 146.784 19.5703 146.852 19.7734C146.924 19.9714 147.016 20.1276 147.125 20.2422C147.24 20.3568 147.367 20.4349 147.508 20.4766C147.654 20.5182 147.802 20.5391 147.953 20.5391ZM150.609 16.9844C150.609 16.3958 150.719 15.8516 150.938 15.3516C151.156 14.8464 151.456 14.4089 151.836 14.0391C152.221 13.6693 152.674 13.3802 153.195 13.1719C153.716 12.9635 154.276 12.8594 154.875 12.8594C155.464 12.8594 156.016 12.9583 156.531 13.1562C157.052 13.349 157.505 13.625 157.891 13.9844C158.276 14.3438 158.578 14.7812 158.797 15.2969C159.021 15.8125 159.133 16.3906 159.133 17.0312C159.133 17.5677 159.039 18.0833 158.852 18.5781C158.664 19.0729 158.388 19.5104 158.023 19.8906C157.659 20.2708 157.211 20.5755 156.68 20.8047C156.154 21.0286 155.547 21.1406 154.859 21.1406C154.276 21.1406 153.727 21.0443 153.211 20.8516C152.695 20.6589 152.245 20.3828 151.859 20.0234C151.474 19.6641 151.169 19.2292 150.945 18.7188C150.721 18.2031 150.609 17.625 150.609 16.9844ZM155.039 20.5703C155.409 20.5703 155.747 20.4974 156.055 20.3516C156.367 20.2057 156.635 19.9948 156.859 19.7188C157.083 19.4427 157.258 19.1068 157.383 18.7109C157.508 18.3151 157.57 17.8672 157.57 17.3672C157.57 16.8047 157.51 16.2839 157.391 15.8047C157.271 15.3203 157.091 14.9036 156.852 14.5547C156.617 14.2005 156.32 13.9245 155.961 13.7266C155.602 13.5286 155.182 13.4297 154.703 13.4297C154.333 13.4297 153.995 13.5026 153.688 13.6484C153.38 13.7891 153.112 13.9948 152.883 14.2656C152.659 14.5365 152.484 14.8698 152.359 15.2656C152.234 15.6562 152.172 16.1016 152.172 16.6016C152.172 17.1641 152.232 17.6875 152.352 18.1719C152.477 18.6562 152.659 19.0781 152.898 19.4375C153.138 19.7917 153.435 20.0703 153.789 20.2734C154.148 20.4714 154.565 20.5703 155.039 20.5703ZM166.102 15.7344C166.102 15.3906 166.065 15.0938 165.992 14.8438C165.924 14.5938 165.823 14.388 165.688 14.2266C165.557 14.0599 165.398 13.9375 165.211 13.8594C165.023 13.776 164.815 13.7344 164.586 13.7344C164.43 13.7344 164.255 13.7656 164.062 13.8281C163.87 13.8906 163.669 13.9766 163.461 14.0859C163.258 14.1901 163.052 14.3125 162.844 14.4531C162.641 14.5938 162.448 14.7448 162.266 14.9062C162.255 15.0729 162.25 15.2526 162.25 15.4453C162.25 15.6328 162.25 15.8359 162.25 16.0547V17.9453C162.25 18.388 162.255 18.776 162.266 19.1094C162.276 19.4375 162.292 19.7214 162.312 19.9609C162.333 20.2005 162.357 20.401 162.383 20.5625C162.409 20.724 162.438 20.8594 162.469 20.9688V21H160.664V20.9688C160.695 20.8594 160.724 20.724 160.75 20.5625C160.781 20.401 160.805 20.2005 160.82 19.9609C160.841 19.7214 160.857 19.4375 160.867 19.1094C160.883 18.776 160.891 18.388 160.891 17.9453V16.0547C160.891 15.612 160.883 15.2266 160.867 14.8984C160.857 14.5651 160.841 14.2786 160.82 14.0391C160.805 13.7995 160.781 13.599 160.75 13.4375C160.724 13.276 160.695 13.1406 160.664 13.0312V13H162.469V13.0312C162.427 13.151 162.393 13.3047 162.367 13.4922C162.346 13.6745 162.323 13.9062 162.297 14.1875C162.505 14.0208 162.729 13.8568 162.969 13.6953C163.208 13.5339 163.453 13.3906 163.703 13.2656C163.958 13.1406 164.214 13.0391 164.469 12.9609C164.724 12.8828 164.977 12.8438 165.227 12.8438C165.523 12.8438 165.786 12.8828 166.016 12.9609C166.245 13.0391 166.445 13.1458 166.617 13.2812C166.789 13.4167 166.932 13.5755 167.047 13.7578C167.167 13.9401 167.258 14.1354 167.32 14.3438C167.534 14.1615 167.766 13.9818 168.016 13.8047C168.271 13.6224 168.531 13.4609 168.797 13.3203C169.068 13.1797 169.341 13.0651 169.617 12.9766C169.898 12.888 170.172 12.8438 170.438 12.8438C170.844 12.8438 171.188 12.9141 171.469 13.0547C171.755 13.1953 171.987 13.3802 172.164 13.6094C172.346 13.8385 172.477 14.1016 172.555 14.3984C172.638 14.6901 172.68 14.987 172.68 15.2891V17.9453C172.68 18.388 172.685 18.776 172.695 19.1094C172.706 19.4375 172.721 19.7214 172.742 19.9609C172.763 20.2005 172.786 20.401 172.812 20.5625C172.844 20.724 172.875 20.8594 172.906 20.9688V21H171.094V20.9688C171.125 20.8594 171.154 20.724 171.18 20.5625C171.211 20.401 171.237 20.2005 171.258 19.9609C171.279 19.7214 171.294 19.4375 171.305 19.1094C171.315 18.776 171.32 18.388 171.32 17.9453V15.7344C171.32 15.0469 171.182 14.5417 170.906 14.2188C170.63 13.8958 170.26 13.7344 169.797 13.7344C169.635 13.7344 169.456 13.7656 169.258 13.8281C169.065 13.8906 168.865 13.9766 168.656 14.0859C168.448 14.1953 168.24 14.3229 168.031 14.4688C167.823 14.6094 167.628 14.7604 167.445 14.9219C167.456 14.9844 167.461 15.0469 167.461 15.1094C167.461 15.1719 167.461 15.2318 167.461 15.2891V17.9453C167.461 18.388 167.466 18.776 167.477 19.1094C167.492 19.4375 167.508 19.7214 167.523 19.9609C167.544 20.2005 167.568 20.401 167.594 20.5625C167.625 20.724 167.656 20.8594 167.688 20.9688V21H165.883V20.9688C165.914 20.8594 165.943 20.724 165.969 20.5625C165.995 20.401 166.018 20.2005 166.039 19.9609C166.06 19.7214 166.076 19.4375 166.086 19.1094C166.096 18.776 166.102 18.388 166.102 17.9453V15.7344ZM178.531 21.1406C177.953 21.1406 177.411 21.0495 176.906 20.8672C176.401 20.6849 175.961 20.4193 175.586 20.0703C175.211 19.7161 174.914 19.2812 174.695 18.7656C174.482 18.2448 174.375 17.651 174.375 16.9844C174.375 16.3958 174.474 15.8516 174.672 15.3516C174.87 14.8464 175.143 14.4089 175.492 14.0391C175.841 13.6693 176.247 13.3802 176.711 13.1719C177.18 12.9635 177.685 12.8594 178.227 12.8594C178.763 12.8594 179.26 12.9531 179.719 13.1406C180.177 13.3229 180.573 13.5911 180.906 13.9453C181.245 14.2943 181.51 14.7292 181.703 15.25C181.901 15.7656 182.008 16.3542 182.023 17.0156C181.435 17.0052 180.846 16.9974 180.258 16.9922C179.669 16.987 179.057 16.9844 178.422 16.9844C177.969 16.9844 177.526 16.987 177.094 16.9922C176.667 16.9974 176.281 17.0052 175.938 17.0156C175.969 17.5573 176.052 18.0469 176.188 18.4844C176.328 18.9219 176.518 19.2969 176.758 19.6094C177.003 19.9167 177.297 20.1536 177.641 20.3203C177.99 20.487 178.383 20.5703 178.82 20.5703C179.122 20.5703 179.406 20.5365 179.672 20.4688C179.943 20.3958 180.188 20.2969 180.406 20.1719C180.625 20.0469 180.82 19.901 180.992 19.7344C181.164 19.5625 181.31 19.3776 181.43 19.1797L181.523 19.2266L180.945 20.6172C180.664 20.763 180.328 20.888 179.938 20.9922C179.547 21.0911 179.078 21.1406 178.531 21.1406ZM177.492 16.375C178.013 16.375 178.534 16.375 179.055 16.375C179.581 16.3698 180.057 16.3594 180.484 16.3438C180.438 15.8906 180.349 15.4844 180.219 15.125C180.089 14.7656 179.922 14.4609 179.719 14.2109C179.516 13.9609 179.276 13.7682 179 13.6328C178.724 13.4974 178.419 13.4297 178.086 13.4297C177.784 13.4297 177.505 13.4974 177.25 13.6328C177 13.763 176.781 13.9531 176.594 14.2031C176.406 14.4531 176.255 14.7604 176.141 15.125C176.026 15.4844 175.958 15.8958 175.938 16.3594C176.172 16.3698 176.419 16.375 176.68 16.375C176.94 16.375 177.211 16.375 177.492 16.375ZM183.703 16.0547C183.703 15.612 183.695 15.2266 183.68 14.8984C183.669 14.5651 183.654 14.2786 183.633 14.0391C183.617 13.7995 183.594 13.599 183.562 13.4375C183.536 13.276 183.508 13.1406 183.477 13.0312V13H185.281V13.0312C185.24 13.151 185.203 13.2969 185.172 13.4688C185.146 13.6406 185.125 13.862 185.109 14.1328C185.302 13.9714 185.503 13.8125 185.711 13.6562C185.919 13.5 186.133 13.362 186.352 13.2422C186.57 13.1224 186.792 13.026 187.016 12.9531C187.245 12.8802 187.474 12.8438 187.703 12.8438C187.844 12.8438 187.966 12.8516 188.07 12.8672C188.174 12.8776 188.268 12.8958 188.352 12.9219C188.435 12.9427 188.51 12.9688 188.578 13C188.646 13.026 188.711 13.0521 188.773 13.0781L188.391 14.5703L188.258 14.5391C188.195 14.3099 188.078 14.1276 187.906 13.9922C187.734 13.8516 187.5 13.7812 187.203 13.7812C187.042 13.7812 186.872 13.8099 186.695 13.8672C186.518 13.9245 186.339 14.0052 186.156 14.1094C185.974 14.2083 185.792 14.3255 185.609 14.4609C185.427 14.5911 185.25 14.7292 185.078 14.875C185.068 15.026 185.062 15.1901 185.062 15.3672C185.062 15.5443 185.062 15.7318 185.062 15.9297V17.9453C185.062 18.388 185.068 18.776 185.078 19.1094C185.089 19.4375 185.104 19.7214 185.125 19.9609C185.146 20.2005 185.169 20.401 185.195 20.5625C185.221 20.724 185.25 20.8594 185.281 20.9688V21H183.477V20.9688C183.508 20.8594 183.536 20.724 183.562 20.5625C183.594 20.401 183.617 20.2005 183.633 19.9609C183.654 19.7214 183.669 19.4375 183.68 19.1094C183.695 18.776 183.703 18.388 183.703 17.9453V16.0547ZM196.344 17.9453C196.344 18.388 196.349 18.776 196.359 19.1094C196.375 19.4375 196.391 19.7214 196.406 19.9609C196.427 20.2005 196.451 20.401 196.477 20.5625C196.508 20.724 196.539 20.8594 196.57 20.9688V21H194.695V20.9688C194.727 20.8594 194.755 20.724 194.781 20.5625C194.812 20.401 194.836 20.2005 194.852 19.9609C194.872 19.7214 194.888 19.4375 194.898 19.1094C194.914 18.7812 194.922 18.3932 194.922 17.9453V12.8594C194.922 12.4167 194.914 12.0312 194.898 11.7031C194.888 11.3698 194.872 11.0833 194.852 10.8438C194.836 10.6042 194.812 10.4036 194.781 10.2422C194.755 10.0755 194.727 9.9375 194.695 9.82812V9.79688L195.023 9.82812C195.122 9.83854 195.232 9.84635 195.352 9.85156C195.477 9.85156 195.604 9.85156 195.734 9.85156C195.938 9.85156 196.211 9.82812 196.555 9.78125C196.904 9.72917 197.346 9.70312 197.883 9.70312C198.383 9.70312 198.844 9.77083 199.266 9.90625C199.693 10.0417 200.062 10.2396 200.375 10.5C200.688 10.7604 200.93 11.0807 201.102 11.4609C201.279 11.8359 201.367 12.263 201.367 12.7422C201.367 13.1172 201.318 13.4661 201.219 13.7891C201.125 14.1068 200.99 14.3958 200.812 14.6562C200.641 14.9167 200.432 15.1484 200.188 15.3516C199.943 15.5495 199.669 15.7161 199.367 15.8516L202.109 19.7031C202.245 19.8958 202.37 20.0625 202.484 20.2031C202.604 20.3438 202.716 20.4661 202.82 20.5703C202.93 20.6693 203.034 20.7526 203.133 20.8203C203.232 20.8828 203.333 20.9323 203.438 20.9688V21H201.18C201.164 20.901 201.112 20.7708 201.023 20.6094C200.94 20.4427 200.841 20.2786 200.727 20.1172L197.961 16.2188C197.841 16.2292 197.721 16.2396 197.602 16.25C197.482 16.2552 197.359 16.2578 197.234 16.2578C197.089 16.2578 196.94 16.2526 196.789 16.2422C196.643 16.2318 196.495 16.2135 196.344 16.1875V17.9453ZM196.344 15.5781C196.484 15.6094 196.628 15.6328 196.773 15.6484C196.919 15.6589 197.06 15.6641 197.195 15.6641C197.586 15.6641 197.943 15.6068 198.266 15.4922C198.589 15.3724 198.862 15.1927 199.086 14.9531C199.315 14.7135 199.492 14.4167 199.617 14.0625C199.742 13.7031 199.805 13.2839 199.805 12.8047C199.805 12.4141 199.76 12.0599 199.672 11.7422C199.583 11.4245 199.451 11.1562 199.273 10.9375C199.102 10.7135 198.883 10.5417 198.617 10.4219C198.352 10.2969 198.042 10.2344 197.688 10.2344C197.328 10.2344 197.042 10.2526 196.828 10.2891C196.615 10.3255 196.453 10.3646 196.344 10.4062V15.5781ZM207.734 21.1406C207.156 21.1406 206.615 21.0495 206.109 20.8672C205.604 20.6849 205.164 20.4193 204.789 20.0703C204.414 19.7161 204.117 19.2812 203.898 18.7656C203.685 18.2448 203.578 17.651 203.578 16.9844C203.578 16.3958 203.677 15.8516 203.875 15.3516C204.073 14.8464 204.346 14.4089 204.695 14.0391C205.044 13.6693 205.451 13.3802 205.914 13.1719C206.383 12.9635 206.888 12.8594 207.43 12.8594C207.966 12.8594 208.464 12.9531 208.922 13.1406C209.38 13.3229 209.776 13.5911 210.109 13.9453C210.448 14.2943 210.714 14.7292 210.906 15.25C211.104 15.7656 211.211 16.3542 211.227 17.0156C210.638 17.0052 210.049 16.9974 209.461 16.9922C208.872 16.987 208.26 16.9844 207.625 16.9844C207.172 16.9844 206.729 16.987 206.297 16.9922C205.87 16.9974 205.484 17.0052 205.141 17.0156C205.172 17.5573 205.255 18.0469 205.391 18.4844C205.531 18.9219 205.721 19.2969 205.961 19.6094C206.206 19.9167 206.5 20.1536 206.844 20.3203C207.193 20.487 207.586 20.5703 208.023 20.5703C208.326 20.5703 208.609 20.5365 208.875 20.4688C209.146 20.3958 209.391 20.2969 209.609 20.1719C209.828 20.0469 210.023 19.901 210.195 19.7344C210.367 19.5625 210.513 19.3776 210.633 19.1797L210.727 19.2266L210.148 20.6172C209.867 20.763 209.531 20.888 209.141 20.9922C208.75 21.0911 208.281 21.1406 207.734 21.1406ZM206.695 16.375C207.216 16.375 207.737 16.375 208.258 16.375C208.784 16.3698 209.26 16.3594 209.688 16.3438C209.641 15.8906 209.552 15.4844 209.422 15.125C209.292 14.7656 209.125 14.4609 208.922 14.2109C208.719 13.9609 208.479 13.7682 208.203 13.6328C207.927 13.4974 207.622 13.4297 207.289 13.4297C206.987 13.4297 206.708 13.4974 206.453 13.6328C206.203 13.763 205.984 13.9531 205.797 14.2031C205.609 14.4531 205.458 14.7604 205.344 15.125C205.229 15.4844 205.161 15.8958 205.141 16.3594C205.375 16.3698 205.622 16.375 205.883 16.375C206.143 16.375 206.414 16.375 206.695 16.375ZM213.641 13V13.0312C213.63 13.0573 213.622 13.0964 213.617 13.1484C213.612 13.2005 213.609 13.2474 213.609 13.2891C213.609 13.4505 213.633 13.6302 213.68 13.8281C213.727 14.0208 213.81 14.263 213.93 14.5547L215.797 19L217.688 14.6172C217.766 14.4245 217.849 14.2135 217.938 13.9844C218.026 13.7552 218.07 13.5234 218.07 13.2891C218.07 13.2214 218.065 13.1667 218.055 13.125C218.044 13.0781 218.034 13.0469 218.023 13.0312V13H219.43V13.0312C219.336 13.1302 219.216 13.3073 219.07 13.5625C218.93 13.8125 218.779 14.1276 218.617 14.5078L215.734 21.1094H215.273L212.602 14.8906C212.508 14.6615 212.406 14.4427 212.297 14.2344C212.193 14.0208 212.091 13.8307 211.992 13.6641C211.898 13.4974 211.815 13.3594 211.742 13.25C211.669 13.1354 211.62 13.0625 211.594 13.0312V13H213.641ZM220.578 16.0547C220.578 15.612 220.57 15.2266 220.555 14.8984C220.544 14.5651 220.529 14.2786 220.508 14.0391C220.492 13.7995 220.469 13.599 220.438 13.4375C220.411 13.276 220.383 13.1406 220.352 13.0312V13H222.156V13.0312C222.125 13.1406 222.096 13.276 222.07 13.4375C222.044 13.599 222.021 13.7995 222 14.0391C221.979 14.2786 221.964 14.5651 221.953 14.8984C221.943 15.2266 221.938 15.612 221.938 16.0547V17.9453C221.938 18.388 221.943 18.776 221.953 19.1094C221.964 19.4375 221.979 19.7214 222 19.9609C222.021 20.2005 222.044 20.401 222.07 20.5625C222.096 20.724 222.125 20.8594 222.156 20.9688V21H220.352V20.9688C220.383 20.8594 220.411 20.724 220.438 20.5625C220.469 20.401 220.492 20.2005 220.508 19.9609C220.529 19.7214 220.544 19.4375 220.555 19.1094C220.57 18.776 220.578 18.388 220.578 17.9453V16.0547ZM220.414 10.6328C220.414 10.5182 220.435 10.4115 220.477 10.3125C220.523 10.2083 220.583 10.1198 220.656 10.0469C220.729 9.96875 220.815 9.90885 220.914 9.86719C221.018 9.82031 221.13 9.79688 221.25 9.79688C221.37 9.79688 221.479 9.82031 221.578 9.86719C221.682 9.90885 221.771 9.96875 221.844 10.0469C221.922 10.1198 221.982 10.2083 222.023 10.3125C222.07 10.4115 222.094 10.5182 222.094 10.6328C222.094 10.8724 222.013 11.0729 221.852 11.2344C221.69 11.3958 221.49 11.4766 221.25 11.4766C221.13 11.4766 221.018 11.4557 220.914 11.4141C220.815 11.3672 220.729 11.3073 220.656 11.2344C220.583 11.1562 220.523 11.0677 220.477 10.9688C220.435 10.8646 220.414 10.7526 220.414 10.6328ZM227.891 21.1406C227.312 21.1406 226.771 21.0495 226.266 20.8672C225.76 20.6849 225.32 20.4193 224.945 20.0703C224.57 19.7161 224.273 19.2812 224.055 18.7656C223.841 18.2448 223.734 17.651 223.734 16.9844C223.734 16.3958 223.833 15.8516 224.031 15.3516C224.229 14.8464 224.503 14.4089 224.852 14.0391C225.201 13.6693 225.607 13.3802 226.07 13.1719C226.539 12.9635 227.044 12.8594 227.586 12.8594C228.122 12.8594 228.62 12.9531 229.078 13.1406C229.536 13.3229 229.932 13.5911 230.266 13.9453C230.604 14.2943 230.87 14.7292 231.062 15.25C231.26 15.7656 231.367 16.3542 231.383 17.0156C230.794 17.0052 230.206 16.9974 229.617 16.9922C229.029 16.987 228.417 16.9844 227.781 16.9844C227.328 16.9844 226.885 16.987 226.453 16.9922C226.026 16.9974 225.641 17.0052 225.297 17.0156C225.328 17.5573 225.411 18.0469 225.547 18.4844C225.688 18.9219 225.878 19.2969 226.117 19.6094C226.362 19.9167 226.656 20.1536 227 20.3203C227.349 20.487 227.742 20.5703 228.18 20.5703C228.482 20.5703 228.766 20.5365 229.031 20.4688C229.302 20.3958 229.547 20.2969 229.766 20.1719C229.984 20.0469 230.18 19.901 230.352 19.7344C230.523 19.5625 230.669 19.3776 230.789 19.1797L230.883 19.2266L230.305 20.6172C230.023 20.763 229.688 20.888 229.297 20.9922C228.906 21.0911 228.438 21.1406 227.891 21.1406ZM226.852 16.375C227.372 16.375 227.893 16.375 228.414 16.375C228.94 16.3698 229.417 16.3594 229.844 16.3438C229.797 15.8906 229.708 15.4844 229.578 15.125C229.448 14.7656 229.281 14.4609 229.078 14.2109C228.875 13.9609 228.635 13.7682 228.359 13.6328C228.083 13.4974 227.779 13.4297 227.445 13.4297C227.143 13.4297 226.865 13.4974 226.609 13.6328C226.359 13.763 226.141 13.9531 225.953 14.2031C225.766 14.4531 225.615 14.7604 225.5 15.125C225.385 15.4844 225.318 15.8958 225.297 16.3594C225.531 16.3698 225.779 16.375 226.039 16.375C226.299 16.375 226.57 16.375 226.852 16.375ZM238.336 13.7188L240.422 18.9688L242.164 14.6172C242.201 14.5234 242.242 14.4193 242.289 14.3047C242.336 14.1849 242.378 14.0651 242.414 13.9453C242.451 13.8203 242.482 13.7031 242.508 13.5938C242.534 13.4792 242.547 13.3776 242.547 13.2891C242.547 13.2214 242.542 13.1667 242.531 13.125C242.521 13.0781 242.51 13.0469 242.5 13.0312V13H243.906V13.0312C243.812 13.1302 243.698 13.2943 243.562 13.5234C243.432 13.7474 243.276 14.0755 243.094 14.5078L240.32 21.1094H239.875L237.859 16.2188L235.844 21.1094H235.398L232.836 14.8906C232.742 14.6615 232.641 14.4427 232.531 14.2344C232.427 14.0208 232.326 13.8307 232.227 13.6641C232.133 13.4974 232.049 13.3594 231.977 13.25C231.904 13.1354 231.854 13.0625 231.828 13.0312V13H233.906V13.0312C233.896 13.0573 233.888 13.0964 233.883 13.1484C233.878 13.2005 233.875 13.2474 233.875 13.2891C233.875 13.4505 233.898 13.6302 233.945 13.8281C233.997 14.0208 234.081 14.263 234.195 14.5547L235.938 18.9688L238.039 13.7188H238.336ZM244.031 22.8047C244.505 22.4245 244.906 21.9896 245.234 21.5C245.568 21.0104 245.836 20.4844 246.039 19.9219C246.247 19.3542 246.396 18.7578 246.484 18.1328C246.578 17.5078 246.625 16.8646 246.625 16.2031C246.625 15.5365 246.578 14.8854 246.484 14.25C246.391 13.6146 246.237 13.013 246.023 12.4453C245.815 11.8724 245.539 11.3411 245.195 10.8516C244.857 10.3568 244.443 9.91667 243.953 9.53125L244.164 9.32031C244.701 9.70052 245.198 10.1406 245.656 10.6406C246.115 11.1406 246.51 11.6849 246.844 12.2734C247.177 12.8568 247.438 13.4818 247.625 14.1484C247.812 14.8099 247.906 15.4948 247.906 16.2031C247.906 16.901 247.815 17.5781 247.633 18.2344C247.451 18.8854 247.195 19.5026 246.867 20.0859C246.544 20.6693 246.159 21.2083 245.711 21.7031C245.263 22.1979 244.773 22.6354 244.242 23.0156L244.031 22.8047Z" fill="#060606"/>
<g clip-path="url(#clip0_117_1586)">
<path d="M12.4288 21.4401C12.4921 21.9089 12.2139 22.1302 11.7966 21.9089L8.34458 20.125C7.9273 19.9036 7.24448 19.9036 6.82721 20.125L3.36255 21.8828C2.94527 22.0911 2.66708 21.8828 2.73031 21.401L3.31197 17.4688C3.38783 17 3.17287 16.3229 2.85676 15.9844L0.188713 13.1458C-0.140051 12.8073 -0.0262478 12.4557 0.428963 12.3776L4.23503 11.7396C4.69024 11.6615 5.24661 11.2578 5.46157 10.8281L7.25713 7.3125C7.47209 6.89583 7.82614 6.89583 8.0411 7.3125L9.81137 10.8411C10.0263 11.2708 10.5701 11.6745 11.0253 11.7656L14.8313 12.4427C15.2865 12.5208 15.4003 12.8724 15.0716 13.2109L12.353 16.0365C12.0242 16.375 11.8092 17.0391 11.8851 17.5078L12.4415 21.4401H12.4288Z" fill="url(#paint0_radial_117_1586)"/>
<path style="mix-blend-mode:multiply" opacity="0.5" d="M7.64912 7.19531C7.72498 7.19531 7.80085 7.27344 7.86408 7.41667L9.63434 10.9453C9.87459 11.4271 10.4689 11.8698 10.9873 11.974L14.7934 12.651C14.9325 12.6771 15.0336 12.7292 15.0589 12.8073C15.0842 12.8724 15.0336 12.9766 14.9325 13.0937L12.2139 15.9193C11.8472 16.2969 11.6069 17.026 11.6828 17.5599L12.2392 21.4922C12.2518 21.6224 12.2392 21.7266 12.2012 21.7786C12.2012 21.7786 12.1633 21.8177 12.1001 21.8177C12.0368 21.8177 11.961 21.7917 11.8851 21.7526L8.43309 19.9687C8.20548 19.8516 7.90201 19.7865 7.58589 19.7865C7.26977 19.7865 6.97894 19.8516 6.75134 19.9557L3.28668 21.7135C3.21081 21.7526 3.13494 21.7786 3.07172 21.7786C2.99585 21.7786 2.97056 21.7526 2.97056 21.7396C2.93262 21.6875 2.90733 21.5833 2.93262 21.4531L3.51428 17.5208C3.59015 16.987 3.37519 16.2578 3.00849 15.8802L0.31516 13.0026C0.214002 12.8984 0.163423 12.7943 0.188713 12.7161C0.214002 12.651 0.31516 12.5859 0.454253 12.5599L4.26032 11.9219C4.77876 11.8307 5.37306 11.388 5.62596 10.9062L7.43415 7.40365C7.49738 7.27344 7.58589 7.19531 7.66176 7.19531M7.64912 7C7.51002 7 7.37093 7.10417 7.25713 7.3125L5.46157 10.8281C5.24661 11.2448 4.69024 11.6615 4.23503 11.7396L0.428963 12.3776C-0.0262478 12.4557 -0.140051 12.7943 0.188713 13.1458L2.88204 15.9974C3.21081 16.3359 3.41312 17.013 3.33726 17.4818L2.7556 21.4141C2.70502 21.7656 2.84411 21.974 3.08436 21.974C3.17287 21.974 3.27403 21.9479 3.37519 21.8958L6.83985 20.138C7.04217 20.0339 7.32035 19.9818 7.58589 19.9818C7.85143 19.9818 8.14226 20.0339 8.34458 20.151L11.7966 21.9349C11.9104 21.987 12.0116 22.013 12.1001 22.013C12.3403 22.013 12.4794 21.8047 12.4288 21.4661L11.8725 17.5339C11.8092 17.0651 12.0242 16.401 12.3403 16.0625L15.0589 13.237C15.3877 12.8984 15.2739 12.5599 14.8187 12.4687L11.0126 11.7917C10.5574 11.7135 10.001 11.2969 9.79872 10.8672L8.0411 7.32552C7.93995 7.10417 7.78821 7 7.64912 7Z" fill="url(#paint1_radial_117_1586)"/>
<path d="M32.3701 21.4401C32.4334 21.9088 32.1552 22.1302 31.7379 21.9088L28.2859 20.125C27.8686 19.9036 27.1858 19.9036 26.7685 20.125L23.3039 21.8828C22.8866 22.0911 22.6084 21.8828 22.6716 21.401L23.2533 17.4687C23.3291 17 23.1142 16.3229 22.7981 15.9844L20.1047 13.1328C19.776 12.7943 19.8898 12.4427 20.345 12.3646L24.151 11.7266C24.6063 11.6484 25.1626 11.2448 25.3776 10.8151L27.1731 7.29947C27.3881 6.8828 27.7422 6.8828 27.9571 7.29947L29.7274 10.8281C29.9423 11.2578 30.4861 11.6614 30.9413 11.7526L34.7473 12.4297C35.2026 12.5078 35.3164 12.8594 34.9876 13.1979L32.269 16.0234C31.9402 16.362 31.7253 17.026 31.8011 17.4948L32.3575 21.4271L32.3701 21.4401Z" fill="url(#paint2_radial_117_1586)"/>
<path style="mix-blend-mode:multiply" opacity="0.5" d="M27.5905 7.19531C27.6664 7.19531 27.7423 7.27344 27.8181 7.41667L29.5884 10.9453C29.8286 11.4271 30.4229 11.8698 30.9414 11.974L34.7474 12.651C34.8865 12.6771 34.9877 12.7292 35.013 12.8073C35.0383 12.8724 34.9877 12.9766 34.8865 13.0937L32.1679 15.9193C31.8012 16.2969 31.561 17.026 31.6368 17.5599L32.1932 21.4922C32.2059 21.6224 32.1932 21.7266 32.1553 21.7786C32.1553 21.7786 32.1173 21.8177 32.0541 21.8177C31.9909 21.8177 31.915 21.7917 31.8392 21.7526L28.3871 19.9687C28.1595 19.8516 27.8561 19.7865 27.5399 19.7865C27.2238 19.7865 26.933 19.8516 26.7054 19.9557L23.2407 21.7135C23.1649 21.7526 23.089 21.7786 23.0258 21.7786C22.9499 21.7786 22.9246 21.7526 22.912 21.7396C22.874 21.6875 22.8487 21.5833 22.874 21.4531L23.4557 17.5208C23.5316 16.987 23.304 16.2578 22.9373 15.8802L20.2439 13.0286C20.1428 12.9245 20.0922 12.8203 20.1175 12.7422C20.1428 12.6771 20.2439 12.612 20.383 12.5859L24.1891 11.9479C24.7075 11.8568 25.3018 11.4141 25.5547 10.9323L27.3503 7.41667C27.4135 7.28646 27.502 7.20833 27.5779 7.20833M27.5905 7C27.4514 7 27.3123 7.10417 27.1985 7.3125L25.403 10.8281C25.188 11.2448 24.6317 11.6615 24.1764 11.7396L20.3704 12.3776C19.9152 12.4557 19.8014 12.7943 20.1301 13.1458L22.8234 15.9974C23.1522 16.3359 23.3545 17.013 23.2787 17.4818L22.697 21.4141C22.6464 21.7656 22.7855 21.974 23.0258 21.974C23.1143 21.974 23.2154 21.9479 23.3166 21.8958L26.7813 20.138C26.9836 20.0339 27.2618 19.9818 27.5273 19.9818C27.7928 19.9818 28.0837 20.0339 28.286 20.151L31.738 21.9349C31.8518 21.987 31.953 22.013 32.0415 22.013C32.2817 22.013 32.4208 21.8047 32.3702 21.4661L31.8139 17.5339C31.7506 17.0651 31.9656 16.401 32.2817 16.0625L35.0003 13.237C35.3291 12.8984 35.2153 12.5599 34.7601 12.4687L30.954 11.7917C30.4988 11.7135 29.9551 11.2969 29.7401 10.8672L27.9699 7.33854C27.8561 7.13021 27.717 7.01302 27.5779 7.01302L27.5905 7Z" fill="url(#paint3_radial_117_1586)"/>
<path d="M52.2969 21.4401C52.3602 21.9088 52.082 22.1302 51.6647 21.9088L48.2127 20.125C47.7954 19.9036 47.1126 19.9036 46.708 20.125L43.2433 21.8828C42.826 22.0911 42.5478 21.8828 42.6111 21.401L43.1927 17.4687C43.2686 17 43.0536 16.3229 42.7375 15.9844L40.0442 13.1328C39.7154 12.7943 39.8292 12.4427 40.2844 12.3646L44.0905 11.7266C44.5457 11.6484 45.1021 11.2448 45.317 10.8151L47.1126 7.29947C47.3276 6.8828 47.6816 6.8828 47.8966 7.29947L49.6668 10.8281C49.8818 11.2578 50.4255 11.6614 50.8807 11.7526L54.6868 12.4297C55.142 12.5078 55.2558 12.8594 54.9271 13.1979L52.2084 16.0234C51.8797 16.362 51.6647 17.026 51.7406 17.4948L52.2969 21.4271V21.4401Z" fill="url(#paint4_radial_117_1586)"/>
<path style="mix-blend-mode:multiply" opacity="0.5" d="M47.5163 7.19531C47.5922 7.19531 47.668 7.27344 47.7439 7.41667L49.5142 10.9453C49.7544 11.4271 50.3487 11.8698 50.8672 11.974L54.6732 12.651C54.8123 12.6771 54.9135 12.7292 54.9388 12.8073C54.9641 12.8724 54.9135 12.9766 54.8123 13.0937L52.0937 15.9193C51.727 16.2969 51.4868 17.026 51.5626 17.5599L52.119 21.4922C52.1316 21.6224 52.119 21.7266 52.0811 21.7786C52.0811 21.7786 52.0431 21.8177 51.9799 21.8177C51.9167 21.8177 51.8408 21.7917 51.7649 21.7526L48.3129 19.9687C48.0853 19.8516 47.7818 19.7865 47.4657 19.7865C47.1496 19.7865 46.8588 19.8516 46.6312 19.9557L43.1665 21.7135C43.0906 21.7526 43.0148 21.7786 42.9515 21.7786C42.8757 21.7786 42.8504 21.7526 42.8377 21.7396C42.7998 21.6875 42.7745 21.5833 42.7998 21.4531L43.3815 17.5208C43.4573 16.987 43.2297 16.2578 42.863 15.8802L40.1697 13.0286C40.0685 12.9245 40.018 12.8203 40.0433 12.7422C40.0685 12.6771 40.1697 12.612 40.3088 12.5859L44.1149 11.9479C44.6333 11.8568 45.2276 11.4141 45.4805 10.9323L47.2761 7.41667C47.3393 7.28646 47.4278 7.20833 47.5037 7.20833M47.5163 7C47.3772 7 47.2381 7.10417 47.1243 7.3125L45.3288 10.8281C45.1138 11.2448 44.5574 11.6615 44.1022 11.7396L40.2962 12.3776C39.8409 12.4557 39.7271 12.7943 40.0559 13.1458L42.7492 15.9974C43.078 16.3359 43.2803 17.013 43.2044 17.4818L42.6228 21.4141C42.5722 21.7656 42.7113 21.974 42.9515 21.974C43.0401 21.974 43.1412 21.9479 43.2424 21.8958L46.707 20.138C46.9094 20.0339 47.1875 19.9818 47.4531 19.9818C47.7186 19.9818 48.0094 20.0339 48.2118 20.151L51.6638 21.9349C51.7776 21.987 51.8787 22.013 51.9673 22.013C52.2075 22.013 52.3466 21.8047 52.296 21.4661L51.7396 17.5339C51.6764 17.0651 51.8914 16.401 52.2075 16.0625L54.9261 13.237C55.2549 12.8984 55.1411 12.5599 54.6859 12.4687L50.8798 11.7917C50.4246 11.7135 49.8682 11.2969 49.6659 10.8672L47.8956 7.33854C47.7945 7.13021 47.6427 7.01302 47.5037 7.01302L47.5163 7Z" fill="url(#paint5_radial_117_1586)"/>
<path d="M72.2393 21.4401C72.3025 21.9088 72.0243 22.1302 71.607 21.9088L68.155 20.125C67.7377 19.9036 67.0549 19.9036 66.6377 20.125L63.173 21.8828C62.7557 22.0911 62.4775 21.8828 62.5408 21.401L63.1224 17.4687C63.1983 17 62.9833 16.3229 62.6672 15.9844L59.9739 13.1328C59.6451 12.7943 59.7589 12.4427 60.2141 12.3646L64.0202 11.7266C64.4754 11.6484 65.0318 11.2448 65.2467 10.8151L67.0423 7.29947C67.2572 6.8828 67.6113 6.8828 67.8263 7.29947L69.5965 10.8281C69.8115 11.2578 70.3552 11.6614 70.8104 11.7526L74.6165 12.4297C75.0717 12.5078 75.1855 12.8594 74.8567 13.1979L72.1381 16.0234C71.8094 16.362 71.5944 17.026 71.6703 17.4948L72.2266 21.4271L72.2393 21.4401Z" fill="url(#paint6_radial_117_1586)"/>
<path style="mix-blend-mode:multiply" opacity="0.5" d="M67.4597 7.19531C67.5355 7.19531 67.6114 7.27344 67.6873 7.41667L69.4575 10.9453C69.6978 11.4271 70.2921 11.8698 70.8105 11.974L74.6166 12.651C74.7557 12.6771 74.8568 12.7292 74.8821 12.8073C74.9074 12.8724 74.8568 12.9766 74.7557 13.0937L72.0371 15.9193C71.6704 16.2969 71.4301 17.026 71.506 17.5599L72.0624 21.4922C72.075 21.6224 72.0623 21.7266 72.0244 21.7786C72.0244 21.7786 71.9865 21.8177 71.9233 21.8177C71.86 21.8177 71.7842 21.7917 71.7083 21.7526L68.2563 19.9687C68.0287 19.8516 67.7252 19.7865 67.4091 19.7865C67.093 19.7865 66.8021 19.8516 66.5745 19.9557L63.1099 21.7135C63.034 21.7526 62.9581 21.7786 62.8949 21.7786C62.819 21.7786 62.7938 21.7526 62.7811 21.7396C62.7432 21.6875 62.7179 21.5833 62.7432 21.4531L63.3248 17.5208C63.4007 16.987 63.1857 16.2578 62.819 15.8802L60.1257 13.0286C60.0245 12.9245 59.974 12.8203 59.9993 12.7422C60.0245 12.6771 60.1257 12.612 60.2648 12.5859L64.0709 11.9479C64.5893 11.8568 65.1836 11.4141 65.4365 10.9323L67.2321 7.41667C67.2953 7.28646 67.3838 7.20833 67.4597 7.20833M67.4597 7C67.3206 7 67.1815 7.10417 67.0677 7.3125L65.2721 10.8281C65.0572 11.2448 64.5008 11.6615 64.0456 11.7396L60.2395 12.3776C59.7843 12.4557 59.6705 12.7943 59.9993 13.1458L62.6926 15.9974C63.0214 16.3359 63.2237 17.013 63.1478 17.4818L62.5661 21.4141C62.5156 21.7656 62.6547 21.974 62.8949 21.974C62.9834 21.974 63.0846 21.9479 63.1857 21.8958L66.6504 20.138C66.8527 20.0339 67.1309 19.9818 67.3964 19.9818C67.662 19.9818 67.9528 20.0339 68.1551 20.151L71.6071 21.9349C71.7209 21.987 71.8221 22.013 71.9106 22.013C72.1509 22.013 72.29 21.8047 72.2394 21.4661L71.683 17.5339C71.6198 17.0651 71.8347 16.401 72.1509 16.0625L74.8695 13.237C75.1982 12.8984 75.0844 12.5599 74.6292 12.4687L70.8232 11.7917C70.368 11.7135 69.8116 11.2969 69.6093 10.8672L67.839 7.33854C67.7378 7.13021 67.5861 7.01302 67.447 7.01302L67.4597 7Z" fill="url(#paint7_radial_117_1586)"/>
<path d="M92.1661 21.4401C92.2293 21.9088 91.9511 22.1302 91.5338 21.9088L88.0818 20.125C87.6646 19.9036 86.9817 19.9036 86.5771 20.125L83.1124 21.8828C82.6952 22.0911 82.417 21.8828 82.4802 21.401L83.0619 17.4687C83.1377 17 82.9228 16.3229 82.6067 15.9844L79.9133 13.1328C79.5846 12.7943 79.6984 12.4427 80.1536 12.3646L83.9596 11.7266C84.4149 11.6484 84.9712 11.2448 85.1862 10.8151L86.9817 7.29947C87.1967 6.8828 87.5508 6.8828 87.7657 7.29947L89.536 10.8281C89.7509 11.2578 90.2947 11.6614 90.7499 11.7526L94.5559 12.4297C95.0112 12.5078 95.125 12.8594 94.7962 13.1979L92.0776 16.0234C91.7488 16.362 91.5338 17.026 91.5971 17.4948L92.1534 21.4271L92.1661 21.4401Z" fill="url(#paint8_radial_117_1586)"/>
<path style="mix-blend-mode:multiply" opacity="0.5" d="M87.3854 7.19531C87.4613 7.19531 87.5372 7.27344 87.6131 7.41667L89.3833 10.9453C89.6236 11.4271 90.2179 11.8698 90.7363 11.974L94.5424 12.651C94.6815 12.6771 94.7826 12.7292 94.8079 12.8073C94.8332 12.8854 94.7826 12.9766 94.6815 13.0937L91.9628 15.9193C91.5961 16.2969 91.3559 17.026 91.4318 17.5599L91.9881 21.4922C92.0008 21.6224 91.9881 21.7266 91.9502 21.7786C91.9502 21.7786 91.9123 21.8177 91.849 21.8177C91.7858 21.8177 91.7099 21.7917 91.6341 21.7526L88.1821 19.9687C87.9545 19.8516 87.651 19.7865 87.3349 19.7865C87.0187 19.7865 86.7279 19.8516 86.5003 19.9557L83.0356 21.7135C82.9598 21.7526 82.8839 21.7786 82.8207 21.7786C82.7448 21.7786 82.7195 21.7526 82.7195 21.7396C82.6689 21.6875 82.6563 21.5833 82.6816 21.4531L83.2633 17.5208C83.3391 16.987 83.1242 16.2578 82.7448 15.8802L80.0515 13.0286C79.9503 12.9245 79.8998 12.8203 79.925 12.7422C79.9503 12.6771 80.0515 12.612 80.1906 12.5859L83.9967 11.9479C84.5151 11.8568 85.1094 11.4141 85.3623 10.9323L87.1578 7.41667C87.2211 7.28646 87.3096 7.20833 87.3854 7.20833M87.3854 7C87.2464 7 87.1073 7.10417 86.9935 7.3125L85.1979 10.8281C84.9829 11.2448 84.4266 11.6615 83.9714 11.7396L80.1653 12.3776C79.7101 12.4557 79.5963 12.7943 79.925 13.1458L82.6184 15.9974C82.9471 16.3359 83.1494 17.013 83.0736 17.4818L82.4919 21.4141C82.4413 21.7656 82.5804 21.974 82.8207 21.974C82.9092 21.974 83.0104 21.9479 83.1115 21.8958L86.5762 20.138C86.7785 20.0339 87.0567 19.9818 87.3222 19.9818C87.5878 19.9818 87.8786 20.0339 88.0809 20.151L91.5329 21.9349C91.6467 21.987 91.7479 22.013 91.8364 22.013C92.0766 22.013 92.2157 21.8047 92.1652 21.4661L91.6088 17.5339C91.5456 17.0651 91.7605 16.401 92.0893 16.0625L94.8079 13.237C95.1367 12.8984 95.0229 12.5599 94.5677 12.4687L90.7616 11.7917C90.3064 11.7135 89.7627 11.2969 89.5477 10.8672L87.7774 7.33854C87.6763 7.13021 87.5245 7.01302 87.3854 7.01302V7Z" fill="url(#paint9_radial_117_1586)"/>
</g>
<defs>
<radialGradient id="paint0_radial_117_1586" cx="0" cy="0" r="1" gradientUnits="userSpaceOnUse" gradientTransform="translate(2.59122 22.1823) scale(15.9577 16.4323)">
<stop offset="0.35" stop-color="#FFC200"/>
<stop offset="0.51" stop-color="#FFBC06"/>
<stop offset="0.72" stop-color="#FFAE18"/>
<stop offset="0.98" stop-color="#FF9736"/>
<stop offset="1" stop-color="#FF953A"/>
</radialGradient>
<radialGradient id="paint1_radial_117_1586" cx="0" cy="0" r="1" gradientUnits="userSpaceOnUse" gradientTransform="translate(1.37732 26.2578) scale(23.0767 23.763)">
<stop offset="0.35" stop-color="#FFC200"/>
<stop offset="0.51" stop-color="#FFBC06"/>
<stop offset="0.72" stop-color="#FFAE18"/>
<stop offset="0.98" stop-color="#FF9736"/>
<stop offset="1" stop-color="#FF953A"/>
</radialGradient>
<radialGradient id="paint2_radial_117_1586" cx="0" cy="0" r="1" gradientUnits="userSpaceOnUse" gradientTransform="translate(22.5199 7.65103) scale(15.9577 16.4323)">
<stop offset="0.35" stop-color="#FFC200"/>
<stop offset="0.51" stop-color="#FFBC06"/>
<stop offset="0.72" stop-color="#FFAE18"/>
<stop offset="0.98" stop-color="#FF9736"/>
<stop offset="1" stop-color="#FF953A"/>
</radialGradient>
<radialGradient id="paint3_radial_117_1586" cx="0" cy="0" r="1" gradientUnits="userSpaceOnUse" gradientTransform="translate(21.3061 26.2578) scale(23.0767 23.763)">
<stop offset="0.35" stop-color="#FFC200"/>
<stop offset="0.51" stop-color="#FFBC06"/>
<stop offset="0.72" stop-color="#FFAE18"/>
<stop offset="0.98" stop-color="#FF9736"/>
<stop offset="1" stop-color="#FF953A"/>
</radialGradient>
<radialGradient id="paint4_radial_117_1586" cx="0" cy="0" r="1" gradientUnits="userSpaceOnUse" gradientTransform="translate(42.4593 7.65103) scale(15.9577 16.4323)">
<stop offset="0.35" stop-color="#FFC200"/>
<stop offset="0.51" stop-color="#FFBC06"/>
<stop offset="0.72" stop-color="#FFAE18"/>
<stop offset="0.98" stop-color="#FF9736"/>
<stop offset="1" stop-color="#FF953A"/>
</radialGradient>
<radialGradient id="paint5_radial_117_1586" cx="0" cy="0" r="1" gradientUnits="userSpaceOnUse" gradientTransform="translate(41.2445 26.2578) scale(23.0767 23.763)">
<stop offset="0.35" stop-color="#FFC200"/>
<stop offset="0.51" stop-color="#FFBC06"/>
<stop offset="0.72" stop-color="#FFAE18"/>
<stop offset="0.98" stop-color="#FF9736"/>
<stop offset="1" stop-color="#FF953A"/>
</radialGradient>
<radialGradient id="paint6_radial_117_1586" cx="0" cy="0" r="1" gradientUnits="userSpaceOnUse" gradientTransform="translate(62.389 7.65103) scale(15.9577 16.4323)">
<stop offset="0.35" stop-color="#FFC200"/>
<stop offset="0.51" stop-color="#FFBC06"/>
<stop offset="0.72" stop-color="#FFAE18"/>
<stop offset="0.98" stop-color="#FF9736"/>
<stop offset="1" stop-color="#FF953A"/>
</radialGradient>
<radialGradient id="paint7_radial_117_1586" cx="0" cy="0" r="1" gradientUnits="userSpaceOnUse" gradientTransform="translate(61.1752 26.2578) scale(23.0767 23.763)">
<stop offset="0.35" stop-color="#FFC200"/>
<stop offset="0.51" stop-color="#FFBC06"/>
<stop offset="0.72" stop-color="#FFAE18"/>
<stop offset="0.98" stop-color="#FF9736"/>
<stop offset="1" stop-color="#FF953A"/>
</radialGradient>
<radialGradient id="paint8_radial_117_1586" cx="0" cy="0" r="1" gradientUnits="userSpaceOnUse" gradientTransform="translate(82.3285 7.65103) scale(15.9577 16.4323)">
<stop offset="0.35" stop-color="#FFC200"/>
<stop offset="0.51" stop-color="#FFBC06"/>
<stop offset="0.72" stop-color="#FFAE18"/>
<stop offset="0.98" stop-color="#FF9736"/>
<stop offset="1" stop-color="#FF953A"/>
</radialGradient>
<radialGradient id="paint9_radial_117_1586" cx="0" cy="0" r="1" gradientUnits="userSpaceOnUse" gradientTransform="translate(81.1136 26.2578) scale(23.0767 23.763)">
<stop offset="0.35" stop-color="#FFC200"/>
<stop offset="0.51" stop-color="#FFBC06"/>
<stop offset="0.72" stop-color="#FFAE18"/>
<stop offset="0.98" stop-color="#FF9736"/>
<stop offset="1" stop-color="#FF953A"/>
</radialGradient>
<clipPath id="clip0_117_1586">
<rect width="95" height="15" fill="white" transform="translate(0 7)"/>
</clipPath>
</defs>
</svg>
