<svg width="14" height="13" viewBox="0 0 14 13" fill="none" xmlns="http://www.w3.org/2000/svg">
<path d="M13.3685 0.44337C13.2133 0.24687 12.9983 0.146484 12.7292 0.146484C12.4359 0.146484 12.2045 0.290299 12.0194 0.405636L11.9724 0.434114C11.9397 0.454049 11.9076 0.473984 11.887 0.487511C10.1064 1.65654 8.60557 3.14239 7.24929 4.57413C6.07457 5.81365 5.05433 7.15568 4.21423 8.56606C4.15941 8.49273 4.0996 8.41228 4.03553 8.32471C3.45386 7.53515 2.5746 6.34192 1.36997 5.59365C1.25606 5.52317 1.05457 5.4477 0.830306 5.4477C0.677948 5.4477 0.537693 5.48116 0.412389 5.54809C0.265014 5.6264 0.14683 5.75028 0.0713624 5.9062C-0.135816 6.33337 0.151101 6.73776 0.384623 7.00546C1.76795 8.58956 2.57175 10.2491 2.95834 11.0458C3.02099 11.1754 3.07368 11.2836 3.11639 11.3669C3.34849 11.819 3.81696 12.1166 4.33882 12.1436L4.39008 12.1465L4.44063 12.1401C5.19103 12.0411 5.52992 11.4253 5.64099 11.2231C5.66519 11.1796 5.68797 11.1384 5.71147 11.0978L5.72784 11.0672C7.78967 6.97627 10.2424 3.80451 12.8218 1.89433C12.8374 1.88294 12.8545 1.87084 12.8737 1.85731C12.9898 1.77473 13.1578 1.63091 13.281 1.47499C13.5544 1.12827 13.5893 0.723168 13.3693 0.444082L13.3685 0.44337Z" fill="black"/>
</svg>
