<svg width="24" height="24" viewBox="0 0 24 24" fill="none" xmlns="http://www.w3.org/2000/svg">
<path d="M23.0565 7.32877C22.452 5.89963 21.587 4.61654 20.4854 3.51478C19.3837 2.41315 18.1005 1.54796 16.6714 0.943596C15.1912 0.317406 13.6195 0 12 0C10.3805 0 8.80883 0.317406 7.32863 0.943461C5.8995 1.54796 4.6164 2.41301 3.51464 3.51464C2.41301 4.61627 1.54796 5.8995 0.943461 7.32863C0.317406 8.80896 0 10.3805 0 12C0 13.6195 0.317406 15.1912 0.943461 16.6714C1.54796 18.1005 2.41301 19.3837 3.51464 20.4854C4.61627 21.587 5.8995 22.4522 7.32863 23.0565C8.80883 23.6826 10.3805 24 12 24C13.6195 24 15.1912 23.6826 16.6714 23.0565C18.1005 22.452 19.3837 21.587 20.4854 20.4854C21.587 19.3837 22.4522 18.1005 23.0565 16.6714C23.6826 15.1912 24 13.6195 24 12C24 10.3805 23.6826 8.80883 23.0565 7.32863V7.32877ZM12 21.6216C6.69463 21.6216 2.37839 17.3054 2.37839 12C2.37839 6.69463 6.69463 2.37839 12 2.37839C17.3054 2.37839 21.6216 6.69463 21.6216 12C21.6216 17.3054 17.3054 21.6216 12 21.6216Z" fill="#231F20"/>
<path d="M18.1623 14.725L13.7062 11.5262C13.6035 11.2248 13.4233 10.9594 13.1892 10.7537V5.16228C13.1892 4.50551 12.6568 3.97308 12 3.97308C11.3432 3.97308 10.8108 4.50551 10.8108 5.16228V10.7537C10.4348 11.084 10.1973 11.5681 10.1973 12.1079C10.1973 13.1035 11.0044 13.9106 12 13.9106C12.2609 13.9106 12.5087 13.8547 12.7326 13.755L16.7752 16.6572C16.9853 16.808 17.2276 16.8804 17.4677 16.8804C17.8378 16.8804 18.2025 16.7083 18.4347 16.3847C18.8178 15.8512 18.6957 15.1082 18.1622 14.7251L18.1623 14.725Z" fill="#231F20"/>
</svg>
