<svg width="1013" height="706" viewBox="0 0 1013 706" fill="none" xmlns="http://www.w3.org/2000/svg">
<path d="M761.304 629.89H170.027V634.568H761.304V629.89Z" fill="#C1A78C"/>
<path d="M1013 629.89H979.582V634.568H1013V629.89Z" fill="#C1A78C"/>
<path d="M208.105 558.088L213.247 632.229H293.876L288.5 552.475L208.105 558.088Z" fill="#C1A78C"/>
<path d="M296.447 634.568H210.91L205.535 555.749L290.604 549.902L296.447 634.568ZM215.351 629.89H291.305L286.164 555.048L210.677 560.193L215.351 629.89Z" fill="#C1A78C"/>
<path d="M141.259 632.229L234.508 405.129L159.956 382.911L57.125 632.229H141.259Z" fill="#C1A78C"/>
<path d="M142.897 634.568H53.6211L158.789 379.87L237.782 403.492L142.897 634.568ZM60.6323 629.89H139.859L231.472 406.533L161.36 385.483L60.6323 629.89Z" fill="#C1A78C"/>
<path d="M331.509 632.229H419.382C419.148 628.721 418.681 624.979 418.447 621.237C415.643 578.202 419.148 545.927 429.198 524.877C439.247 503.828 454.438 492.368 474.537 491.198C494.402 489.795 510.528 498.916 522.914 518.562C535.534 538.209 543.013 569.549 546.051 612.583C546.518 619.366 546.752 625.914 546.986 632.229H636.028C636.028 623.809 635.794 615.39 635.093 606.502C633.223 578.202 628.549 552.241 621.071 528.386C613.592 504.763 603.075 484.65 589.52 467.81C575.965 451.204 559.138 438.575 539.507 429.921C519.642 421.501 496.973 417.993 471.031 419.63C444.622 421.501 422.187 428.05 403.49 439.276C385.027 450.503 370.07 465.237 358.852 483.48C347.634 501.723 339.688 523.24 335.014 547.564C330.574 572.121 329.172 598.55 331.041 626.85C331.275 628.955 331.275 630.592 331.509 632.229Z" fill="white"/>
<path d="M638.134 634.568H544.651V632.229C544.417 625.914 544.184 619.366 543.716 612.817C540.678 570.25 532.966 538.91 521.047 519.732C509.128 500.787 493.703 492.134 475.007 493.537C455.609 494.94 441.353 505.465 431.537 526.047C421.722 546.862 418.216 578.904 421.021 621.237C421.254 624.979 421.488 628.487 421.955 631.995L422.189 634.568H329.641L329.408 631.06C329.408 629.89 329.174 628.721 329.174 627.551C327.304 599.486 328.473 572.589 333.147 547.564C337.821 522.772 346.001 501.021 357.219 482.545C368.437 464.068 383.628 448.866 402.558 437.405C421.488 425.945 444.391 419.396 471.034 417.525C496.975 415.654 520.579 419.163 540.678 428.05C560.543 436.704 577.604 449.801 591.392 466.641C604.947 483.48 615.698 504.062 623.41 527.918C630.889 551.774 635.797 578.202 637.666 606.502C638.367 614.922 638.601 623.575 638.601 632.229L638.134 634.568ZM549.091 629.89H633.459C633.459 622.172 633.226 614.22 632.525 606.736C630.655 578.67 625.981 552.709 618.502 529.321C611.024 505.933 600.741 485.819 587.419 469.681C574.098 453.309 557.505 440.914 538.341 432.494C518.943 424.074 496.274 420.8 470.8 422.437C444.859 424.308 422.656 430.623 404.427 441.615C386.198 452.608 371.475 467.342 360.724 485.117C349.74 502.892 341.794 524.409 337.354 548.499C332.913 573.057 331.511 599.486 333.381 627.318C333.381 628.253 333.614 629.189 333.614 630.124H416.58C416.346 627.318 416.113 624.511 415.879 621.704C413.075 578.436 416.58 545.693 426.863 524.176C437.38 502.191 453.272 490.497 474.306 489.093C475.708 489.093 477.11 488.859 478.512 488.859C497.209 488.859 512.867 498.449 524.786 517.393C537.406 537.507 545.118 568.613 548.39 612.583C548.624 618.43 548.858 624.277 549.091 629.89Z" fill="#C1A78C"/>
<path d="M962.529 632.229L956.686 595.276L914.619 598.316L908.309 504.997L827.914 510.61L834.458 603.695L751.258 609.309L854.557 357.651L780.004 335.433L657.309 632.229H962.529Z" fill="#C1A78C"/>
<path d="M965.336 634.568H654.039L778.604 332.392L857.831 356.014L754.766 606.736L831.889 601.357L825.579 508.271L910.648 502.424L916.958 595.743L958.558 592.937L965.336 634.568ZM660.817 629.89H959.727L954.585 597.848L912.518 600.655L906.208 507.336L830.487 512.481L836.797 605.566L747.522 611.647L851.287 358.821L781.175 337.771L660.817 629.89Z" fill="#C1A78C"/>
<path d="M508.663 442.317C509.365 452.374 489.032 461.963 463.324 464.068C437.383 466.173 415.882 459.858 414.947 449.801C414.246 439.744 434.579 430.155 460.286 428.05C486.228 425.945 507.962 432.26 508.663 442.317Z" fill="#C1A78C"/>
<path d="M554.235 447.93C552.832 451.906 543.952 452.607 534.603 449.099C525.255 445.825 518.945 439.744 520.347 435.768C521.749 431.792 530.63 431.09 539.979 434.599C549.327 437.873 555.637 443.954 554.235 447.93Z" fill="#C1A78C"/>
<path d="M28.3963 629.89H0.351562V634.568H28.3963V629.89Z" fill="#C1A78C"/>
<path d="M145.719 668.013H118.375V672.691H145.719V668.013Z" fill="#C1A78C"/>
<path d="M234.522 668.013H184.977V672.691H234.522V668.013Z" fill="#C1A78C"/>
<path d="M905.96 668.013H809.906V672.691H905.96V668.013Z" fill="#C1A78C"/>
<path d="M102.009 700.522H77.7031V705.2H102.009V700.522Z" fill="#C1A78C"/>
<path d="M942.188 700.522H917.883V705.2H942.188V700.522Z" fill="#C1A78C"/>
<path d="M436.682 444.889C433.41 444.889 430.839 442.317 430.839 439.042C431.073 388.056 415.648 354.611 411.909 348.296C411.208 347.594 410.507 346.425 410.273 345.256C409.806 343.151 410.507 340.812 412.376 339.409C414.246 338.005 416.583 337.771 418.686 338.707C424.062 341.28 432.475 367.241 432.475 367.474C437.149 382.443 442.758 407 442.758 439.042C442.525 442.317 439.72 444.889 436.682 444.889Z" fill="#C1A78C"/>
<path d="M575.503 379.168C574.101 379.168 572.698 378.701 571.53 377.531C569.193 375.192 569.193 371.684 571.296 369.345C575.269 365.135 585.552 351.57 580.878 343.618C576.204 335.432 557.04 327.948 546.056 325.142C543.018 324.44 540.914 321.166 541.849 318.125C542.55 315.085 545.822 313.214 548.86 313.915C552.132 314.851 582.047 322.569 590.927 337.771C600.743 354.845 580.411 376.362 579.709 377.297C578.541 378.701 577.139 379.168 575.503 379.168Z" fill="#C1A78C"/>
<path d="M534.37 165.4C533.435 165.4 532.5 165.166 531.565 164.699C528.761 163.295 527.592 159.553 529.228 156.747L568.023 82.8398C569.426 80.0333 573.165 78.8638 575.969 80.501C578.774 81.9043 579.942 85.6464 578.307 88.453L539.511 162.36C538.576 164.231 536.473 165.4 534.37 165.4Z" fill="#C1A78C"/>
<path d="M382.93 216.854C382.696 216.854 382.463 216.854 382.229 216.854L288.279 207.031C285.007 206.797 282.67 203.757 283.138 200.717C283.371 197.442 286.41 195.103 289.448 195.571L383.398 205.394C386.669 205.628 389.007 208.669 388.539 211.709C388.539 214.749 385.968 216.854 382.93 216.854Z" fill="#C1A78C"/>
<path d="M580.415 327.714L425.001 375.894C421.962 376.83 418.457 375.192 417.522 371.918L360.731 188.087C360.264 186.684 360.498 185.046 361.199 183.643L381.298 145.286C381.999 143.883 383.401 142.714 384.803 142.246L511.005 103.188C514.043 102.252 517.548 103.889 518.483 107.164L584.388 320.23C585.323 323.505 583.453 326.779 580.415 327.714Z" fill="white"/>
<path d="M423.129 378.467C419.389 378.467 416.351 376.128 415.183 372.62L358.392 188.789C357.691 186.684 357.925 184.579 358.859 182.474L378.958 144.117C379.893 142.246 381.763 140.609 383.866 140.141L510.067 101.083C510.768 100.849 511.703 100.615 512.404 100.615C516.144 100.615 519.182 102.954 520.35 106.462L586.256 319.529C586.957 321.634 586.723 323.972 585.554 325.843C584.62 327.715 582.75 329.352 580.647 329.819L425.699 377.999C424.765 378.233 424.063 378.467 423.129 378.467ZM512.638 105.293C512.171 105.293 511.937 105.293 511.47 105.526L385.268 144.585C384.333 144.819 383.632 145.52 383.165 146.456L363.3 184.813C362.832 185.748 362.832 186.684 363.066 187.619L419.857 371.217C420.324 373.088 422.428 374.257 424.297 373.555L579.712 325.376C580.647 325.142 581.348 324.44 581.815 323.505C582.283 322.569 582.283 321.634 582.049 320.698L516.144 107.631C515.676 106.462 514.274 105.293 512.638 105.293Z" fill="#C1A78C"/>
<path d="M477.814 215.451C480.618 227.145 475.243 240.243 466.128 244.219C457.014 248.428 447.198 242.114 444.394 230.186C441.589 218.492 446.964 205.394 456.079 201.418C465.427 197.442 475.243 203.757 477.814 215.451Z" fill="#C1A78C"/>
<path d="M456.312 201.652C452.106 203.523 448.834 207.265 446.73 211.709C450.937 216.153 457.014 217.556 462.622 214.983C466.829 213.112 470.101 209.37 472.204 204.926C467.998 200.483 461.921 199.079 456.312 201.652Z" fill="#D4CBC2"/>
<path d="M382.461 143.649L360.726 184.579C360.726 185.046 360.492 185.28 360.492 185.748L386.901 177.562C389.939 176.627 391.575 173.352 390.64 170.312L382.461 143.649Z" fill="#D4CBC2"/>
<path d="M357.922 189.022L358.389 185.514C358.389 185.046 358.623 184.579 358.623 183.877L358.857 183.409L380.825 142.012L381.059 141.778L383.863 139.439L393.212 169.61C393.913 171.715 393.679 173.82 392.744 175.925C391.809 177.796 389.94 179.199 388.07 179.901L357.922 189.022ZM381.994 149.496L364.933 182.006L386.2 175.457C387.135 175.223 387.836 174.522 388.304 173.82C388.771 172.885 388.771 171.949 388.537 171.247L381.994 149.496Z" fill="#C1A78C"/>
<path d="M483.887 175.691C484.121 178.498 482.251 180.837 479.68 181.07C476.876 181.304 474.539 179.433 474.305 176.861C474.071 174.054 475.941 171.715 478.512 171.481C481.082 171.013 483.653 172.885 483.887 175.691Z" fill="#C1A78C"/>
<path d="M435.512 193.934C435.746 196.74 433.876 199.079 431.305 199.313C428.501 199.547 426.164 197.676 425.93 195.103C425.696 192.297 427.566 189.958 430.137 189.724C432.707 189.256 435.278 191.127 435.512 193.934Z" fill="#C1A78C"/>
<path d="M220.738 47.2898H134.968C132.631 47.2898 130.528 46.3543 128.892 44.7171C127.256 43.08 126.555 40.7411 126.555 38.6362C126.555 37.4668 126.788 36.0635 127.022 34.8941C128.892 28.1115 134.267 22.9661 141.278 21.5628C145.251 20.8612 148.99 21.3289 152.262 22.9661C155.301 9.63482 166.986 0.0456543 180.775 0.0456543C194.329 0.0456543 205.781 9.40094 208.819 22.4983C210.455 22.2645 212.091 22.0306 213.727 22.2645C222.141 23.2 228.684 30.2164 229.152 38.6362C229.152 40.975 228.451 43.08 226.815 44.7171C225.179 46.3543 223.075 47.2898 220.738 47.2898ZM144.784 25.3049C143.849 25.3049 143.148 25.3049 142.213 25.5388C137.071 26.4743 132.631 30.4503 131.229 35.5957C130.995 36.5313 130.761 37.4668 130.761 38.4023C130.761 39.5717 130.995 40.7411 131.93 41.4428C132.631 42.3783 133.8 42.8461 134.968 42.8461H220.738C221.907 42.8461 223.075 42.3783 223.776 41.4428C224.478 40.7411 224.945 39.5717 224.945 38.6362C224.711 32.3214 219.57 26.7082 213.26 26.2404C211.39 26.0066 209.52 26.2404 207.884 26.7082L205.547 27.4099L205.08 25.071C203.21 12.9092 192.927 4.02165 180.541 4.02165C167.921 4.02165 157.17 13.6108 155.768 26.2404L155.301 29.7487L152.496 27.6437C150.393 26.2404 147.588 25.3049 144.784 25.3049Z" fill="#C1A78C"/>
<path d="M806.173 46.3543H735.594C732.789 46.3543 729.985 45.1849 728.115 43.3139C726.246 41.4428 725.077 38.8701 725.311 36.2974C725.311 35.128 725.545 33.7247 725.545 32.5553C726.947 24.8372 732.789 18.7563 740.268 16.6513C743.54 15.7158 747.046 15.7158 750.551 16.4174C755.225 6.82826 764.807 0.74733 775.791 0.74733C788.178 0.74733 799.396 9.16708 802.668 21.0951C810.614 21.5628 816.924 28.3454 816.924 36.2974C816.69 41.9106 812.016 46.3543 806.173 46.3543ZM745.643 20.1595C744.241 20.1595 742.839 20.3934 741.437 20.6273C735.36 22.2645 730.92 27.176 729.751 33.2569C729.518 34.1925 729.518 35.128 729.518 36.2974C729.518 37.7007 730.219 39.104 731.154 40.2734C732.322 41.4428 733.958 42.1445 735.828 42.1445H806.407C809.679 42.1445 812.717 39.5718 812.717 36.2974C812.717 30.2165 807.809 25.0711 801.733 25.0711C801.499 25.0711 801.499 25.0711 801.265 25.0711H799.396L798.928 23.4339C796.591 12.6753 786.776 4.72333 775.791 4.72333C765.976 4.72333 757.329 10.5704 753.823 19.6918L752.888 21.7967L751.019 21.0951C749.149 20.3934 747.279 20.1595 745.643 20.1595Z" fill="#C1A78C"/>
<path d="M657.536 38.6362C657.302 33.4908 653.095 29.281 648.188 29.281V29.0471C653.329 29.0471 657.536 24.8372 657.536 19.6918H657.769C657.769 24.8372 661.976 29.0471 667.118 29.0471V29.281C661.742 29.5148 657.536 33.7247 657.536 38.6362Z" fill="white"/>
<path d="M293.891 78.6301C293.658 73.4847 289.451 69.2748 284.543 69.2748V69.0409C289.685 69.0409 293.891 64.831 293.891 59.6856H294.125C294.125 64.831 298.332 69.0409 303.473 69.0409V69.2748C298.098 69.5087 293.891 73.7186 293.891 78.6301Z" fill="white"/>
<path d="M500.487 39.3378H500.02C500.02 28.8132 491.607 20.3934 481.09 20.3934V19.9256C491.607 19.9256 500.02 11.5059 500.02 0.981186H500.487C500.487 11.5059 508.901 19.9256 519.418 19.9256V20.3934C508.901 20.1595 500.487 28.8132 500.487 39.3378Z" fill="white"/>
<path d="M709.886 131.02H709.652C709.652 123.301 703.342 117.22 695.863 117.22V116.987C703.576 116.987 709.652 110.672 709.652 103.188H709.886C709.886 110.906 716.196 116.987 723.674 116.987V117.22C715.962 117.22 709.886 123.301 709.886 131.02Z" fill="white"/>
<path d="M170.026 173.352H169.793C169.793 165.634 163.483 159.553 156.004 159.553V159.319C163.716 159.319 169.793 153.004 169.793 145.52H170.026C170.026 153.238 176.336 159.319 183.815 159.319V159.553C176.336 159.553 170.026 165.868 170.026 173.352Z" fill="white"/>
</svg>
