<svg width="19" height="20" viewBox="0 0 19 20" fill="none" xmlns="http://www.w3.org/2000/svg">
<path fill-rule="evenodd" clip-rule="evenodd" d="M9.41197 4.27198C8.91341 4.27116 8.41645 4.32829 7.93108 4.44224C7.52783 4.53691 7.12419 4.28675 7.02952 3.8835C6.93486 3.48025 7.18501 3.07661 7.58826 2.98194C8.1866 2.84147 8.79923 2.77102 9.41383 2.77198C12.4697 2.77222 14.8198 4.51698 16.3594 6.15916C17.136 6.9876 17.7291 7.81318 18.1281 8.43095C18.3281 8.74056 18.4805 8.99988 18.584 9.18386C18.6357 9.27589 18.6754 9.34922 18.7026 9.40072C18.7162 9.42648 18.7268 9.44679 18.7342 9.46127L18.7431 9.47858L18.7457 9.48387L18.7466 9.48565C18.7468 9.48593 18.7472 9.48686 18.0764 9.82227L18.7472 9.48686C18.856 9.70443 18.8525 9.96125 18.7379 10.1758C18.2353 11.1161 17.636 12.0014 16.9496 12.8173C16.6829 13.1343 16.2098 13.175 15.8929 12.9084C15.5759 12.6417 15.5351 12.1686 15.8018 11.8516C16.3347 11.2182 16.8094 10.5384 17.2204 9.82048C17.1329 9.6688 17.0152 9.4726 16.868 9.24475C16.5041 8.68122 15.9651 7.93172 15.2651 7.18509C13.8514 5.67724 11.8701 4.27198 9.41321 4.27198L9.41197 4.27198ZM5.33196 4.68976C5.58332 5.01899 5.5202 5.48965 5.19098 5.74101C3.73577 6.85207 2.51763 8.24112 1.60649 9.82607C1.69387 9.97764 1.81146 10.1736 1.95838 10.4011C2.32233 10.9646 2.86136 11.7141 3.56135 12.4607C4.97383 13.9673 6.95302 15.3715 9.40712 15.3738C10.9376 15.3474 12.4197 14.8327 13.6371 13.9045C13.9665 13.6533 14.4371 13.7168 14.6883 14.0462C14.9394 14.3756 14.876 14.8462 14.5466 15.0973C13.0729 16.2209 11.2784 16.8434 9.42549 16.8737L9.41321 16.8739C6.35706 16.8739 4.00675 15.1289 2.46706 13.4867C1.69038 12.6582 1.09731 11.8326 0.698325 11.2149C0.498367 10.9053 0.34593 10.6459 0.242445 10.462C0.190674 10.3699 0.15107 10.2966 0.123816 10.2451C0.110186 10.2193 0.0996376 10.199 0.0921925 10.1845L0.0833525 10.1672L0.0806818 10.1619L0.0797845 10.1602C0.0796455 10.1599 0.0791796 10.159 0.75 9.82354L0.0791797 10.159C-0.0298059 9.94098 -0.0260919 9.68365 0.0891389 9.46891C1.11953 7.54876 2.54868 5.8712 4.28071 4.54879C4.60993 4.29742 5.08059 4.36054 5.33196 4.68976ZM8.29294 7.64198C8.5754 7.94495 8.55877 8.41953 8.2558 8.70199C8.09738 8.84969 7.97033 9.02778 7.88222 9.22565C7.79412 9.42351 7.74677 9.63709 7.743 9.85365C7.73923 10.0702 7.77911 10.2853 7.86027 10.4861C7.94143 10.6869 8.0622 10.8693 8.21539 11.0225C8.36857 11.1756 8.55102 11.2963 8.75187 11.3774C8.95271 11.4585 9.16782 11.4983 9.38438 11.4944C9.60094 11.4906 9.8145 11.4431 10.0123 11.3549C10.2102 11.2668 10.3882 11.1396 10.5358 10.9812C10.8182 10.6781 11.2928 10.6613 11.5958 10.9436C11.8989 11.226 11.9157 11.7005 11.6334 12.0036C11.3484 12.3095 11.0048 12.5548 10.623 12.725C10.2412 12.8952 9.82903 12.9867 9.41108 12.9942C8.99312 13.0016 8.57795 12.9248 8.19033 12.7683C7.8027 12.6118 7.45057 12.3789 7.15493 12.0833C6.85929 11.7878 6.6262 11.4358 6.46956 11.0482C6.31292 10.6606 6.23595 10.2455 6.24323 9.82753C6.2505 9.40957 6.34189 8.99736 6.51193 8.61549C6.68197 8.23362 6.92717 7.8899 7.23293 7.60485C7.5359 7.32239 8.01048 7.33902 8.29294 7.64198Z" fill="#0C0C0C"/>
<path fill-rule="evenodd" clip-rule="evenodd" d="M0.21967 0.628605C0.512563 0.335712 0.987437 0.335712 1.28033 0.628605L18.608 17.9563C18.9009 18.2492 18.9009 18.7241 18.608 19.017C18.3151 19.3099 17.8403 19.3099 17.5474 19.017L0.21967 1.68927C-0.0732233 1.39637 -0.0732233 0.921499 0.21967 0.628605Z" fill="#0C0C0C"/>
</svg>
