<svg width="25" height="25" viewBox="0 0 25 25" fill="none" xmlns="http://www.w3.org/2000/svg">
<mask id="mask0_128_1388" style="mask-type:luminance" maskUnits="userSpaceOnUse" x="0" y="0" width="25" height="25">
<path d="M24.0557 0H0.015625V24.0745H24.0557V0Z" fill="white"/>
</mask>
<g mask="url(#mask0_128_1388)">
<path d="M24.0474 14.1382C24.0474 13.4382 24.0474 12.7377 24.0474 12.0369C24.0474 11.0485 24.0474 10.0605 24.0474 9.07299C24.0474 8.03272 24.0419 6.99203 24.0308 5.95092C24.0449 5.76847 24.0193 5.58729 24.0168 5.40484C23.9926 4.45081 23.7453 3.5157 23.2946 2.67446C22.6952 1.59994 21.7124 0.79117 20.5426 0.409778C19.9725 0.218356 19.3796 0.103375 18.7793 0.0678422H18.7589L18.7321 -0.00488281L18.7474 0.0640146C18.5121 0.0407877 18.2753 0.036521 18.0393 0.0512558C17.6246 0.0104277 17.2062 0.0244624 16.7889 0.0231865H6.59851C6.21574 0.0231865 5.84574 0.04998 5.46808 0.0589111C4.31846 0.0701989 3.19676 0.414552 2.23883 1.05027C1.51649 1.55389 0.943112 2.24274 0.578914 3.04447C0.266681 3.75838 0.0901509 4.52421 0.0583562 5.30277C0.0583562 5.50181 0.0239075 5.70084 0.0379422 5.89988C0.00476936 7.32121 0.0302869 8.74381 0.0200799 10.1651C0.0141258 11.4614 0.0111488 12.7573 0.0111488 14.0527C0.0111488 15.0581 0.0111488 16.0627 0.0111488 17.0664C-0.00502393 17.8764 0.0376173 18.6866 0.138737 19.4905C0.219272 20.1636 0.43218 20.814 0.765193 21.4044C0.77778 21.4285 0.794148 21.4505 0.813676 21.4694C1.15387 22.0616 1.61188 22.5777 2.15941 22.9859C2.70693 23.3941 3.33234 23.6856 3.99699 23.8426C4.73528 23.9801 5.48396 24.0544 6.23488 24.0646C7.56307 24.0735 8.9053 24.0646 10.2335 24.0709C10.2335 24.0709 13.9335 24.039 13.9335 24.0709C14.6046 24.0875 15.277 24.0709 15.9494 24.0786C17.1912 24.1248 18.4348 24.0736 19.6686 23.9255C20.499 23.7995 21.2845 23.4671 21.9533 22.9589C22.622 22.4507 23.1525 21.7828 23.4962 21.0165C23.8774 20.0805 24.0607 19.0757 24.0347 18.0654C24.0512 16.7589 24.041 15.4537 24.041 14.1472" fill="white"/>
</g>
<mask id="mask1_128_1388" style="mask-type:luminance" maskUnits="userSpaceOnUse" x="0" y="0" width="25" height="25">
<path d="M18.7396 0.0701733C18.5049 0.0447776 18.2685 0.0383774 18.0328 0.0510351C17.7081 0.025293 17.3824 0.0159247 17.0567 0.0229658H6.59455C6.21178 0.0229658 5.84178 0.0497592 5.46539 0.0586904C4.3139 0.0693713 3.19028 0.414212 2.23104 1.05132C1.50909 1.55502 0.936139 2.24388 0.572402 3.04552C0.260083 3.75941 0.0835493 4.52525 0.0518436 5.30383C0.0518436 5.50286 0.0173949 5.7019 0.0314296 5.90094C0.00336026 7.32099 0.0224984 8.74359 0.0122914 10.1649C0.00633731 11.269 0.00336026 12.3726 0.00336026 13.4758V13.731C0.00336026 13.8382 0.00336026 13.9453 0.00336026 14.0525C0.00336026 15.0613 0.00336026 16.0659 0.00336026 17.0661C-0.0128798 17.8762 0.0297617 18.6864 0.130948 19.4903C0.21155 20.1633 0.424453 20.8137 0.757404 21.4041C0.769991 21.4283 0.786359 21.4502 0.805888 21.4692C1.14621 22.0611 1.60428 22.577 2.1518 22.9849C2.69932 23.3929 3.32466 23.6843 3.9892 23.8411C4.72748 23.9787 5.47617 24.0529 6.22709 24.0631C6.84845 24.0631 7.47363 24.0631 8.09881 24.0631C8.80947 24.0631 9.52013 24.0631 10.2257 24.0631L10.2385 24.0503L10.2499 24.0312L10.2589 23.9776C10.2589 23.8079 10.2589 22.5626 10.2589 21.0635C10.2589 20.2418 10.2589 19.3449 10.2589 18.5117C10.2589 17.1874 10.2589 15.997 10.2678 15.5006C10.1247 15.4716 9.97809 15.4639 9.83272 15.4777C9.44996 15.4777 9.0672 15.4777 8.68443 15.4777C8.16643 15.4777 7.64842 15.4777 7.12531 15.4904C7.13554 15.3677 7.13554 15.2444 7.12531 15.1217C7.12531 14.5824 7.12531 14.0432 7.12531 13.5039C7.12531 13.0182 7.12531 12.5325 7.12531 12.0468H8.29657C8.93451 12.0468 9.55841 12.0468 10.1989 12.0468C10.2104 11.1537 10.2219 10.2606 10.2244 9.3675C10.2194 8.81982 10.2881 8.27396 10.4286 7.74458C10.5679 7.21498 10.8088 6.71751 11.1379 6.27987C11.3236 6.03617 11.5378 5.81557 11.7759 5.62279C12.0728 5.39458 12.3984 5.20627 12.7443 5.06268C13.5013 4.78572 14.308 4.67054 15.1123 4.72458C15.9004 4.73328 16.6872 4.79295 17.4676 4.9032C17.4676 5.87797 17.3974 6.91398 17.3898 7.89003C16.8028 7.90789 16.1726 7.9232 15.5857 7.9551C15.3353 7.95082 15.0873 8.0039 14.8606 8.11028C14.6339 8.21665 14.4346 8.3735 14.2779 8.5688C14.0337 8.92624 13.9095 9.35205 13.9232 9.78471C13.9232 10.5388 13.9232 11.2915 13.9232 12.0443C14.6619 12.0443 15.4198 12.0443 16.1713 12.0443H17.4165C17.3974 12.1578 17.2775 12.7371 17.141 13.3993C16.9738 14.2107 16.7812 15.1485 16.7212 15.5057H13.9283V15.5172C13.9283 16.2215 13.9283 16.9258 13.9283 17.6301C13.9283 18.5198 13.9283 19.4095 13.9283 20.2992C13.9283 21.5164 13.9283 22.734 13.9283 23.9521C13.9283 23.9776 13.9283 24.0286 13.9283 24.0541C14.3532 24.0643 14.7768 24.0631 15.2042 24.0618C15.4517 24.0618 15.6992 24.0618 15.9467 24.0618C16.1943 24.0618 16.4456 24.0618 16.6957 24.0618C17.6883 24.0932 18.6819 24.0415 19.6659 23.9074C20.4963 23.7814 21.2819 23.4491 21.9506 22.9408C22.6193 22.4326 23.1498 21.7648 23.4936 20.9984C23.8746 20.0623 24.0579 19.0576 24.032 18.0473C24.0396 17.4655 24.0422 16.8824 24.0422 16.3006V16.2164C24.0422 15.5236 24.0422 14.8308 24.0422 14.138C24.0422 13.4452 24.0422 12.7345 24.0422 12.0366C24.0422 11.0483 24.0422 10.0603 24.0422 9.07277C24.0422 8.03165 24.0366 6.99096 24.0256 5.9507C24.0396 5.76825 24.0141 5.58707 24.0116 5.40462C23.9881 4.44927 23.7408 3.51275 23.2894 2.67041C22.6886 1.59684 21.7049 0.789453 20.5348 0.409557C19.9647 0.218353 19.3718 0.103378 18.7715 0.0676215H18.7511L18.7256 0L18.7396 0.0701733Z" fill="white"/>
</mask>
<g mask="url(#mask1_128_1388)">
<path d="M24.0395 -0.381146L-0.382812 0.00634766L0.00516717 24.4593L24.4275 24.0718L24.0395 -0.381146Z" fill="url(#paint0_linear_128_1388)"/>
</g>
<defs>
<linearGradient id="paint0_linear_128_1388" x1="0.197442" y1="24.2606" x2="0.246287" y2="24.2598" gradientUnits="userSpaceOnUse">
<stop stop-color="#4FA8F7"/>
<stop offset="0.103" stop-color="#25A7F8"/>
<stop offset="0.206" stop-color="#249EF4"/>
<stop offset="0.315" stop-color="#2095F2"/>
<stop offset="0.43" stop-color="#1E8DEE"/>
<stop offset="0.564" stop-color="#1C86EA"/>
<stop offset="0.673" stop-color="#177BE7"/>
<stop offset="0.897" stop-color="#2A64DA"/>
<stop offset="0.988" stop-color="#185BB0"/>
<stop offset="1" stop-color="#185BB0"/>
</linearGradient>
</defs>
</svg>
