<svg width="16" height="18" viewBox="0 0 16 18" fill="none" xmlns="http://www.w3.org/2000/svg">
<path fill-rule="evenodd" clip-rule="evenodd" d="M2.17443 8.80046C2.04647 8.80046 1.91976 8.82567 1.80153 8.87464C1.68331 8.92361 1.57589 8.99539 1.4854 9.08587C1.39492 9.17636 1.32314 9.28378 1.27417 9.402C1.2252 9.52022 1.2 9.64693 1.2 9.7749V15.2841C1.2 15.5426 1.30266 15.7904 1.4854 15.9732C1.66815 16.1559 1.916 16.2586 2.17443 16.2586H13.1878C13.4462 16.2586 13.6941 16.1559 13.8768 15.9732C14.0596 15.7904 14.1622 15.5426 14.1622 15.2841V9.77489C14.1622 9.517 14.06 9.26963 13.878 9.08698C13.6961 8.90453 13.4494 8.80153 13.1918 8.80046H2.17443ZM1.34231 7.76598C1.60613 7.65671 1.88888 7.60046 2.17443 7.60046H13.1949C13.7703 7.60233 14.3216 7.83225 14.7279 8.23983C15.1341 8.64741 15.3622 9.19942 15.3622 9.7749V15.2841C15.3622 15.8608 15.1332 16.4139 14.7254 16.8217C14.3176 17.2295 13.7645 17.4586 13.1878 17.4586H2.17443C1.59774 17.4586 1.04466 17.2295 0.636877 16.8217C0.229091 16.4139 0 15.8608 0 15.2841V9.7749C0 9.48935 0.0562434 9.20659 0.165519 8.94278C0.274795 8.67896 0.434963 8.43926 0.636877 8.23734C0.838791 8.03543 1.0785 7.87526 1.34231 7.76598Z" fill="#757575"/>
<path fill-rule="evenodd" clip-rule="evenodd" d="M7.68779 1.71563C6.80317 1.71563 5.95479 2.06704 5.32927 2.69255C4.70376 3.31807 4.35234 4.16646 4.35234 5.05107V8.19994C4.35234 8.53131 4.08371 8.79994 3.75234 8.79994C3.42097 8.79994 3.15234 8.53131 3.15234 8.19994V5.05107C3.15234 3.8482 3.63018 2.69459 4.48074 1.84403C5.33131 0.993465 6.48492 0.515625 7.68779 0.515625C8.89067 0.515625 10.0443 0.993465 10.8948 1.84403C11.7454 2.69459 12.2232 3.8482 12.2232 5.05107V8.19994C12.2232 8.53131 11.9546 8.79994 11.6232 8.79994C11.2919 8.79994 11.0232 8.53131 11.0232 8.19994V5.05107C11.0232 4.16646 10.6718 3.31807 10.0463 2.69255C9.42079 2.06704 8.5724 1.71563 7.68779 1.71563Z" fill="#757575"/>
</svg>
