<svg width="39" height="54" viewBox="0 0 39 54" fill="none" xmlns="http://www.w3.org/2000/svg">
<g clip-path="url(#clip0_139_3378)">
<path d="M34.872 5.59424C31.1923 1.9433 26.3137 -0.0356214 21.1282 -0.000454784C16.1537 0.0411058 11.4318 1.99445 7.83521 5.50473C4.23862 9.015 2.17018 13.6858 2.01033 18.6571C1.94639 20.6232 2.17977 22.5701 2.69768 24.4436C2.8831 25.1149 3.1005 25.7639 3.35306 26.3937L3.91892 27.6789L16.6716 51.247C17.6051 52.9701 19.3283 53.9963 21.2881 53.9963C23.2478 53.9963 24.971 52.9669 25.9045 51.247L38.6572 27.6789L39.1975 26.4545C39.4564 25.8087 39.6866 25.1309 39.8784 24.4404C40.342 22.7684 40.5754 21.0324 40.5754 19.2837C40.5754 14.1046 38.5485 9.24198 34.872 5.59104V5.59424ZM38.6476 24.1015C38.4686 24.7473 38.2544 25.3803 38.021 25.9621L37.5191 27.0939L24.7791 50.6395C24.0726 51.9439 22.7682 52.7208 21.2881 52.7208C19.8079 52.7208 18.5003 51.9439 17.797 50.6395L5.07942 27.1418L4.53274 25.9046C4.30895 25.3387 4.10434 24.7313 3.93171 24.1079C3.44896 22.3591 3.23157 20.5401 3.28912 18.7018C3.59283 9.17165 11.6012 1.35506 21.1378 1.27833C25.9844 1.23038 30.5369 3.09421 33.9704 6.50218C37.404 9.91015 39.2966 14.4498 39.2966 19.2869C39.2966 20.9205 39.0792 22.5414 38.6476 24.1015Z" fill="#060606"/>
<path d="M21.2429 9.84027C15.8656 9.84027 11.4922 14.2137 11.4922 19.591C11.4922 24.9683 15.8656 29.3418 21.2429 29.3418C26.6202 29.3418 30.9937 24.9683 30.9937 19.591C30.9937 14.2137 26.6202 9.84027 21.2429 9.84027ZM21.2429 28.063C16.5722 28.063 12.771 24.2618 12.771 19.591C12.771 14.9203 16.5722 11.1191 21.2429 11.1191C25.9137 11.1191 29.7149 14.9203 29.7149 19.591C29.7149 24.2618 25.9137 28.063 21.2429 28.063Z" fill="#060606"/>
</g>
<defs>
<clipPath id="clip0_139_3378">
<rect width="38.5778" height="54" fill="white"/>
</clipPath>
</defs>
</svg>
