<svg width="17" height="15" viewBox="0 0 17 15" fill="none" xmlns="http://www.w3.org/2000/svg">
<path fill-rule="evenodd" clip-rule="evenodd" d="M2.16404 0.661381L2.1655 0.661377L14.6859 0.661379C15.2594 0.662778 15.809 0.891223 16.2145 1.29676C16.6201 1.70229 16.8485 2.25191 16.8499 2.82542L16.8499 2.82688L16.8499 12.2161L16.8499 12.2175C16.8485 12.791 16.6201 13.3407 16.2145 13.7462C15.809 14.1517 15.2594 14.3802 14.6859 14.3816H2.16404C1.59053 14.3802 1.04091 14.1517 0.635377 13.7462C0.229844 13.3407 0.00139886 12.791 1.78814e-06 12.2175L0 12.2161V2.82542C0.00139707 2.25191 0.229844 1.70229 0.635377 1.29676C1.04091 0.891223 1.59053 0.662778 2.16404 0.661381ZM2.16632 1.86138C1.91029 1.86217 1.66496 1.96423 1.48391 2.14528C1.30285 2.32634 1.20079 2.57167 1.2 2.8277V12.2153C1.20079 12.4713 1.30285 12.7166 1.48391 12.8977C1.66495 13.0787 1.91026 13.1808 2.16628 13.1816H14.6836C14.9397 13.1808 15.185 13.0787 15.366 12.8977C15.5471 12.7165 15.6492 12.4711 15.6499 12.215C15.6499 12.2148 15.6499 12.2151 15.6499 12.215L15.6499 2.82834C15.6499 2.82822 15.6499 2.82846 15.6499 2.82834C15.6492 2.57221 15.5471 2.32641 15.366 2.14528C15.185 1.96423 14.9396 1.86217 14.6836 1.86138H2.16632Z" fill="#757575"/>
<path fill-rule="evenodd" clip-rule="evenodd" d="M0.108509 2.48297C0.298534 2.2115 0.672652 2.14547 0.944124 2.3355L8.42501 7.572L15.9059 2.3355C16.1774 2.14547 16.5515 2.2115 16.7415 2.48297C16.9315 2.75444 16.8655 3.12856 16.594 3.31858L8.76908 8.79593C8.56249 8.94054 8.28753 8.94054 8.08094 8.79593L0.25598 3.31858C-0.0154922 3.12856 -0.0815171 2.75444 0.108509 2.48297Z" fill="#757575"/>
</svg>
