<svg width="36" height="54" viewBox="0 0 36 54" fill="none" xmlns="http://www.w3.org/2000/svg">
<g clip-path="url(#clip0_139_3393)">
<path d="M32.0211 23.3488C31.055 23.3488 30.1765 23.7282 29.5228 24.3441C29.3622 22.6425 27.9263 21.3058 26.1839 21.3058C25.2616 21.3058 24.424 21.6794 23.8169 22.2864C23.3324 20.7746 21.914 19.6743 20.2445 19.6743C19.2434 19.6743 18.3328 20.0712 17.6615 20.7133V12.3019C17.6615 10.1859 15.9396 8.46393 13.8236 8.46393C11.7076 8.46393 9.98562 10.1859 9.98562 12.3019V33.6953C9.04875 32.2184 7.53983 30.19 5.52016 28.5585C4.28851 27.5633 2.55194 27.5545 1.30278 28.5352C0.578962 29.1043 0.12366 29.9215 0.0244272 30.835C-0.0748053 31.7427 0.187869 32.6329 0.768671 33.3392C1.98281 34.8189 3.81569 37.5128 5.66025 41.9724C5.87915 42.4686 11.0363 54.0029 19.3018 54.0029C19.4069 54.0029 19.5149 54.0029 19.6199 53.9971H20.9771C29.0791 53.9971 35.6722 47.4039 35.6722 39.3019V27C35.6722 24.9891 34.0349 23.3517 32.024 23.3517L32.0211 23.3488ZM34.5019 39.299C34.5019 46.7589 28.4341 52.8267 20.9742 52.8267H19.5966C11.9236 53.0952 6.77808 41.6163 6.73138 41.5142C4.8372 36.9349 2.93427 34.1389 1.67052 32.5979C1.29402 32.1367 1.1189 31.5559 1.18603 30.9605C1.25024 30.3593 1.55086 29.8252 2.02367 29.4516C2.8438 28.8066 3.98205 28.8124 4.78759 29.4633C7.67992 31.7982 9.46319 35.0145 9.94184 35.9426C10.079 36.2053 10.3738 36.3424 10.6627 36.2724C10.9517 36.2023 11.1531 35.9455 11.1531 35.6478V12.3019C11.1531 10.8309 12.3497 9.63137 13.8236 9.63137C15.2975 9.63137 16.4941 10.828 16.4941 12.3019V31.5209C16.4941 31.8419 16.7568 32.1046 17.0778 32.1046C17.3989 32.1046 17.6615 31.8419 17.6615 31.5209V23.4247C17.6615 22.0004 18.8202 20.8417 20.2445 20.8417C21.6688 20.8417 22.8275 22.0004 22.8275 23.4247V31.1765C22.8275 31.4975 23.0901 31.7602 23.4112 31.7602C23.7322 31.7602 23.9949 31.4975 23.9949 31.1765V24.6622C23.9949 23.4539 24.9756 22.4732 26.1839 22.4732C27.3922 22.4732 28.3728 23.4539 28.3728 24.6622V31.1765C28.3728 31.4975 28.6355 31.7602 28.9565 31.7602C29.2776 31.7602 29.5403 31.4975 29.5403 31.1765V26.9971C29.5403 25.6282 30.6523 24.5162 32.0211 24.5162C33.3899 24.5162 34.5019 25.6282 34.5019 26.9971V39.299Z" fill="#060606"/>
<path d="M6.51618 21.2504C6.61833 21.3204 6.73507 21.3554 6.8489 21.3554C7.03277 21.3554 7.21373 21.2679 7.32755 21.1073C7.51142 20.8417 7.44721 20.4798 7.18454 20.2931C4.36809 18.3259 2.68697 15.1038 2.68697 11.6715C2.68697 5.88099 7.40052 1.16744 13.1939 1.16744C18.9874 1.16744 23.7009 5.88099 23.7009 11.6744C23.7009 13.195 23.3828 14.6631 22.7553 16.0348C22.621 16.3267 22.7494 16.674 23.0442 16.8082C23.3361 16.9425 23.6834 16.8141 23.8177 16.5193C24.5152 14.9929 24.8684 13.3643 24.8684 11.6744C24.8684 5.23598 19.6295 0 13.1939 0C6.75842 0 1.51953 5.23598 1.51953 11.6744C1.51953 15.4861 3.38744 19.0672 6.51618 21.2504Z" fill="#060606"/>
</g>
<defs>
<clipPath id="clip0_139_3393">
<rect width="35.6683" height="54" fill="white"/>
</clipPath>
</defs>
</svg>
