<svg width="15" height="15" viewBox="0 0 15 15" fill="none" xmlns="http://www.w3.org/2000/svg">
<path d="M7.5 14.2521C11.6421 14.2521 15 11.0616 15 7.12603C15 3.19043 11.6421 0 7.5 0C3.35786 0 0 3.19043 0 7.12603C0 11.0616 3.35786 14.2521 7.5 14.2521Z" fill="black" fill-opacity="0.7"/>
<path d="M7.4153 8.62557L7.00545 4.8511C6.94453 4.28949 7.40218 3.80054 7.98897 3.80054H8.01113C8.59762 3.80054 9.05499 4.28865 8.99465 4.84998L8.58888 8.62472C8.55798 8.91142 8.307 9.12939 8.00734 9.12939H7.99655C7.69718 9.12939 7.4462 8.9117 7.41501 8.62528L7.4153 8.62557ZM7.09407 10.5334V10.5157C7.09407 10.0363 7.49808 9.64752 7.99626 9.64752H8.01462C8.5128 9.64752 8.91681 10.0363 8.91681 10.5157V10.5334C8.91681 11.0128 8.5128 11.4016 8.01462 11.4016H7.99626C7.49808 11.4016 7.09407 11.0128 7.09407 10.5334Z" fill="white"/>
</svg>
