<svg width="28" height="39" viewBox="0 0 28 39" fill="none" xmlns="http://www.w3.org/2000/svg">
<path d="M27.9657 13.0356C27.5051 5.94668 21.1168 0 13.9905 0H13.8875C10.1918 0.030767 6.71825 1.49989 4.10475 4.14104C1.45692 6.81103 0 10.3531 0 14.1143C0 26.1509 12.6728 38.1818 13.2115 38.6875C13.4336 38.8962 13.7178 39 14.001 39C14.2841 39 14.5673 38.8962 14.7885 38.6875C15.3416 38.1664 28 26.149 28 14.1191C28 13.7567 27.9895 13.3961 27.9657 13.0365V13.0356ZM14.001 20.46C10.5293 20.46 7.7051 17.6122 7.7051 14.1115C7.7051 10.6108 10.5293 7.76289 14.001 7.76289C17.4726 7.76289 20.2949 10.6108 20.2949 14.1115C20.2949 17.6122 17.4707 20.46 14.001 20.46Z" fill="white"/>
</svg>
