<svg width="39" height="27" viewBox="0 0 39 27" fill="none" xmlns="http://www.w3.org/2000/svg">
<path d="M15.0045 11.8942C15.0048 11.8942 15.0051 11.8943 15.0054 11.8945L15.0306 11.9176C15.0313 11.9183 15.0317 11.9185 15.0326 11.9188C15.0336 11.9193 15.0342 11.9211 15.035 11.9218L16.491 13.2502C18.1982 14.8078 20.8112 14.8072 22.5178 13.2489L23.9089 11.9786L24.0742 11.8281L36.7621 0.243642C36.859 0.155156 36.8106 0 36.6794 0H2.32065C2.18944 0 2.14103 0.155137 2.23795 0.243582L14.9955 11.8856C14.9959 11.8859 14.9963 11.8863 14.9966 11.8866C14.9979 11.8879 15.0013 11.8914 15.0037 11.8939C15.0039 11.8941 15.0042 11.8942 15.0045 11.8942Z" fill="white"/>
<path d="M0.228005 2.1891C0.139044 2.10877 0 2.16148 0 2.28134V24.6948C0 24.8197 0.148643 24.8707 0.23618 24.7817L7.97504 16.9114C10.1697 14.6794 10.0624 11.0686 7.73912 8.97088L0.228005 2.1891Z" fill="white"/>
<path d="M20.3217 18.183C20.3211 18.1833 20.3205 18.1838 20.3199 18.1843C20.0863 18.4032 19.7954 18.5132 19.5035 18.5132C19.2112 18.5132 18.919 18.403 18.6862 18.1835L15.6969 15.3695C14.8933 14.6129 13.6286 14.6504 12.8712 15.4533L2.20951 26.7548C2.12065 26.849 2.17463 27 2.30412 27H36.6969C36.826 27 36.8797 26.8483 36.7911 26.7544L26.1328 15.4565C25.3754 14.6536 24.1107 14.6161 23.307 15.3728L20.3235 18.1817C20.323 18.1822 20.3224 18.1826 20.3217 18.183Z" fill="white"/>
<path d="M38.9807 2C38.981 2 38.9811 2.00029 38.9809 2.00045L30.4322 9.72124C28.5607 11.4114 28.4747 14.3204 30.2429 16.1182L38.7638 24.7817C38.8519 24.8713 39 24.8205 39 24.6948V2.28134C39 2.186 38.9932 2.09265 38.9805 2.0003C38.9805 2.00014 38.9806 2 38.9807 2Z" fill="white"/>
</svg>
